<?xml version="1.0" standalone="no"?>
<!DOCTYPE svg PUBLIC "-//W3C//DTD SVG 1.1//EN" "http://www.w3.org/Graphics/SVG/1.1/DTD/svg11.dtd" >
<svg xmlns="http://www.w3.org/2000/svg">
<metadata></metadata>
<defs>
<font id="nokia_sans_s60regular" horiz-adv-x="1175" >
<font-face units-per-em="2048" ascent="1597" descent="-451" />
<missing-glyph horiz-adv-x="548" />
<glyph horiz-adv-x="2048" />
<glyph horiz-adv-x="2048" />
<glyph unicode="&#xd;" horiz-adv-x="2048" />
<glyph unicode=" "  horiz-adv-x="548" />
<glyph unicode="&#x09;" horiz-adv-x="548" />
<glyph unicode="&#xa0;" horiz-adv-x="548" />
<glyph unicode="!" horiz-adv-x="684" d="M182 135q0 66 47 113t113 47t113 -47t47 -113t-47 -112q-47 -47 -113 -48q-66 1 -113 48t-47 112zM195 555v788q0 63 43 103q41 37 104 37t104 -39q43 -39 43 -101v-788q0 -61 -43 -100q-41 -39 -104 -39t-104 37q-43 39 -43 102z" />
<glyph unicode="&#x22;" horiz-adv-x="909" d="M145 1012v348q0 123 123 123t123 -123v-348q0 -123 -123 -123t-123 123zM518 1012v348q0 123 123 123t123 -123v-348q0 -123 -123 -123t-123 123z" />
<glyph unicode="#" horiz-adv-x="1228" d="M0 514q0 98 98 98h205l33 234h-176q-98 0 -99 98q0 98 99 98h205l45 330q14 98 102 98q39 0 66 -22q29 -25 28 -59q0 -16 -4 -50l-41 -297h197l45 330q14 98 102 98q39 0 66 -22q29 -25 28 -59q0 -16 -4 -50l-41 -297h176q98 0 99 -98q0 -98 -99 -98h-204l-33 -234h176 q98 0 98 -98t-98 -98h-205l-45 -330q-14 -98 -102 -98q-39 0 -66 22q-29 25 -28 60q0 16 4 49l41 297h-197l-45 -330q-14 -98 -102 -98q-39 0 -66 22q-29 25 -29 60q0 16 4 49l41 297h-176q-98 0 -98 98zM502 612h194l33 234h-194z" />
<glyph unicode="$" horiz-adv-x="1099" d="M39 205q0 61 37 102q39 43 100 43q45 0 143 -35q106 -37 166 -43v342q-221 66 -292 113q-147 98 -148 291q0 190 129 319q123 121 311 142v63q0 51 7 70q12 27 49 26q37 0 49 -26q6 -18 6 -70v-63q125 -4 225 -47q133 -55 133 -154q0 -61 -36 -107q-39 -45 -101 -45 q-37 0 -102 25q-74 27 -119 31v-273q219 -63 307 -127q158 -115 158 -331q0 -199 -137 -330q-129 -123 -328 -139v-66q0 -96 -55 -96t-56 96v64q-168 4 -284 49q-162 59 -162 176zM377 1055q0 -68 108 -109v234q-109 -29 -108 -125zM596 281q133 31 133 165q0 88 -133 134 v-299z" />
<glyph unicode="%" horiz-adv-x="1478" d="M63 1151q0 135 91 233q90 98 225 99q135 0 225 -99q90 -98 90 -233t-90 -231q-90 -98 -225 -99q-135 1 -225 99q-90 96 -91 231zM272 1151q0 -121 107 -121q106 0 106 121q0 51 -28 86q-29 37 -78 37t-78 -37q-29 -35 -29 -86zM285 76q0 35 20 76l678 1278q35 66 94 65 q49 0 84 -33q37 -35 37 -82q0 -31 -16 -61l-688 -1288q-49 -68 -93 -68q-41 0 -77 33q-39 35 -39 80zM784 305q0 135 90 234q90 98 226 98q135 0 225 -98t90 -234q0 -135 -90 -231q-90 -98 -225 -99q-136 1 -226 99q-90 96 -90 231zM993 305q0 -121 107 -121q106 0 106 121 q0 51 -28 86q-29 37 -78 37t-78 -37q-29 -35 -29 -86z" />
<glyph unicode="&#x26;" horiz-adv-x="1441" d="M49 418q0 274 309 444q-135 135 -135 277q0 164 135 260q121 84 295 84q158 0 279 -80q139 -90 139 -242q0 -225 -260 -358l215 -238l80 92q82 94 156 95q45 0 77 -35q35 -37 35 -94q0 -76 -112 -195l-52 -55l140 -158q45 -51 45 -102q0 -53 -43 -95q-43 -43 -101 -43 q-63 0 -108 48l-142 147q-221 -195 -450 -195q-215 0 -354 115q-147 121 -148 328zM344 446q0 -94 59 -149q57 -51 154 -51q135 0 260 119l-297 329q-176 -113 -176 -248zM530 1147q0 -70 109 -176q150 76 149 159q0 119 -135 119q-43 0 -82 -28q-41 -31 -41 -74z" />
<glyph unicode="'" horiz-adv-x="491" d="M123 1012v348q0 123 123 123t123 -123v-348q0 -123 -123 -123t-123 123z" />
<glyph unicode="(" horiz-adv-x="493" d="M80 584q0 193 51 454q61 322 154 418q25 27 67 27q53 0 90 -33q41 -35 41 -86q0 -8 -39 -135q-106 -319 -106 -645q0 -336 94 -607q51 -133 51 -161q0 -57 -37 -95q-35 -37 -94 -36q-61 0 -106 77q-166 289 -166 822z" />
<glyph unicode=")" horiz-adv-x="493" d="M10 -197q0 8 39 136q106 319 107 645q0 336 -95 606q-51 133 -51 162q0 59 37 94q37 37 94 37q61 0 107 -78q166 -289 166 -821q0 -193 -49 -455q-63 -322 -156 -418q-25 -27 -68 -26q-53 -1 -90 32q-41 35 -41 86z" />
<glyph unicode="*" horiz-adv-x="796" d="M59 961q0 49 58 79q18 10 53 23l51 22q-14 8 -51 23q-35 14 -53 25q-57 31 -58 79q0 47 27 82q31 37 76 37q27 0 147 -84l-10 68q-6 43 -6 61q0 94 104 94q105 0 105 -94q0 -18 -6 -61l-11 -68q117 84 146 84q45 0 76 -37q31 -35 30 -82q0 -49 -57 -79q-18 -10 -53 -25 q-39 -14 -54 -23l54 -22q35 -12 53 -23q57 -31 57 -79q0 -47 -30 -82q-31 -39 -76 -39q-25 0 -146 86l11 -68q6 -43 6 -61q0 -94 -105 -95q-104 0 -104 95q0 18 6 61l10 68q-125 -86 -147 -86q-45 0 -76 39q-27 35 -27 82z" />
<glyph unicode="+" horiz-adv-x="1228" d="M72 518q0 123 123 123h297v297q0 123 122 123q123 0 123 -123v-297h297q123 0 123 -123t-123 -123h-297v-297q0 -123 -123 -123t-122 123v297h-297q-123 0 -123 123z" />
<glyph unicode="," horiz-adv-x="548" d="M-20 -139q0 37 24 82l170 307q39 70 119 69q55 0 98 -38q43 -41 43 -97q0 -37 -26 -82l-172 -307q-39 -70 -117 -69q-55 0 -96 41q-43 39 -43 94z" />
<glyph unicode="-" horiz-adv-x="796" d="M63 592q0 131 117 131h436q117 0 117 -131q0 -127 -117 -127h-436q-117 0 -117 127z" />
<glyph unicode="." horiz-adv-x="548" d="M115 135q0 66 47 113t112 47q66 0 113 -47t47 -113t-47 -112q-47 -47 -113 -48q-66 0 -112 48q-47 47 -47 112z" />
<glyph unicode="/" horiz-adv-x="833" d="M16 88q0 14 19 57l547 1262q31 76 114 76q51 0 86 -33t35 -80q0 -14 -18 -57l-545 -1262q-35 -76 -115 -76q-51 0 -86 33q-37 33 -37 80z" />
<glyph unicode="0" d="M45 729q0 299 117 502q143 252 426 252t426 -252q117 -203 116 -502q0 -299 -116 -502q-143 -252 -426 -252t-426 252q-117 203 -117 502zM365 729q0 -475 223 -475t223 475t-223 475t-223 -475z" />
<glyph unicode="1" horiz-adv-x="757" d="M51 1317q0 57 37 98q39 43 102 43h291q63 0 103 -41q35 -41 34 -104v-1166q0 -76 -43 -118q-43 -41 -110 -41q-68 0 -111 41q-43 43 -43 118v1029h-121q-70 0 -106 45q-33 39 -33 96z" />
<glyph unicode="2" d="M92 135q0 47 47 105q494 590 510 612q72 104 72 190q0 63 -43 111q-43 47 -105 47q-123 0 -174 -166q-27 -86 -45 -114q-35 -51 -100 -52q-70 0 -111 45q-39 41 -39 105q0 190 146 330q143 135 336 135q195 0 321 -115q133 -121 133 -311q0 -180 -180 -418 q-55 -74 -162 -193q-115 -131 -149 -176h375q160 0 159 -135q0 -135 -147 -135h-684q-160 0 -160 135z" />
<glyph unicode="3" d="M66 360q0 57 51 99q47 39 106 39q57 0 135 -119q76 -121 203 -121q80 0 137 55q55 55 56 136q0 96 -56 137q-35 25 -118 39q-90 14 -119 30q-55 31 -55 111q0 72 45 104q27 20 100 39q72 18 100 41q45 37 45 113q0 59 -39 98q-41 39 -108 39q-104 0 -174 -100t-133 -101 q-59 0 -99 48q-35 43 -34 104q0 121 137 225q141 106 309 107q205 0 330 -127q106 -111 106 -248q0 -207 -168 -313q250 -115 250 -367q0 -186 -149 -317q-150 -135 -367 -136q-213 0 -358 131q-133 119 -133 254z" />
<glyph unicode="4" d="M33 442q0 43 28 90l459 832q66 119 209 119q98 0 162 -62q74 -70 74 -200v-629h34q61 0 103 -37q41 -39 41 -98t-41 -99q-41 -37 -103 -36h-34v-175q0 -160 -148 -159q-147 0 -147 159v175h-494q-70 0 -108 40q-35 35 -35 80zM389 592h281v571h-4z" />
<glyph unicode="5" d="M66 250q0 57 40 98q41 41 99 41q35 0 137 -65q104 -66 180 -66q100 0 162 86q55 76 55 182q0 94 -51 150q-51 57 -145 57q-61 0 -127 -33q-63 -35 -115 -34q-55 0 -90 34q-31 31 -31 62l6 69l52 433q14 117 49 157q35 37 110 37h494q70 0 110 -37q39 -35 39 -92 q0 -154 -143 -153h-385l-31 -218q98 20 154 21q182 0 305 -129q119 -125 119 -307q0 -262 -139 -412q-143 -156 -404 -156q-137 0 -280 70q-170 84 -170 205z" />
<glyph unicode="6" d="M74 483q0 211 182 512q154 254 338 424q16 16 65 49q23 14 62 15q45 0 94 -47q51 -49 51 -103q0 -31 -43 -84q-29 -35 -147 -166q-96 -106 -135 -161l4 -4q55 25 129 24q180 0 307 -139q121 -135 121 -320q0 -205 -144 -354q-150 -154 -370 -154q-230 0 -375 152 q-139 145 -139 356zM393 483q0 -90 51 -149q55 -63 144 -64q86 0 141 62q53 61 53 151q0 88 -49 148q-53 66 -145 65q-87 0 -142 -61q-53 -59 -53 -152z" />
<glyph unicode="7" horiz-adv-x="1101" d="M31 1317q0 141 151 141h742q70 0 112 -53q35 -45 35 -94q0 -37 -47 -135l-508 -1033q-47 -94 -74 -120q-33 -35 -98 -35q-78 0 -127 51q-43 43 -43 94q0 31 21 72l512 971h-525q-152 0 -151 141z" />
<glyph unicode="8" d="M82 442q0 236 219 355q-156 113 -156 293q0 176 129 286q125 106 314 107q184 0 311 -107q133 -111 133 -286q0 -193 -158 -293q219 -109 220 -355q0 -209 -150 -340q-145 -127 -356 -127q-216 0 -359 131q-147 133 -147 336zM401 463q0 -84 48 -141q51 -63 139 -64 q84 0 137 64q49 59 49 141q0 96 -51 151q-49 53 -135 54q-86 -1 -137 -60q-49 -57 -50 -145zM440 1057q0 -156 148 -156q150 0 149 156q0 68 -39 110q-41 45 -110 45q-148 1 -148 -155z" />
<glyph unicode="9" d="M74 975q0 205 143 354q150 154 371 154q230 0 375 -152q139 -145 139 -356t-182 -512q-154 -254 -338 -424q-16 -16 -66 -49q-23 -14 -61 -15q-45 0 -95 48q-51 49 -51 102q0 31 43 84q29 35 148 166q96 106 135 162l-4 4q-55 -25 -129 -25q-180 0 -305 139 q-123 135 -123 320zM393 975q0 -88 49 -148q53 -66 146 -65q86 0 141 61q53 59 53 152q0 90 -51 149q-55 63 -143 64q-86 0 -142 -62q-53 -61 -53 -151z" />
<glyph unicode=":" horiz-adv-x="548" d="M115 135q0 66 47 113t112 47q66 0 113 -47t47 -113t-47 -112q-47 -47 -113 -48q-66 0 -112 48q-47 47 -47 112zM115 793q0 65 47 112t112 47q66 0 113 -47t47 -112q0 -66 -47 -113t-113 -47t-112 47q-47 47 -47 113z" />
<glyph unicode=";" horiz-adv-x="548" d="M-20 -139q0 37 24 82l170 307q39 70 119 69q55 1 98 -38q43 -41 43 -97q0 -37 -26 -82l-172 -307q-39 -70 -117 -69q-55 0 -96 41q-43 39 -43 94zM115 793q0 65 47 112t112 47q66 0 113 -47t47 -112q0 -66 -47 -113t-113 -47t-112 47q-47 47 -47 113z" />
<glyph unicode="&#x3c;" horiz-adv-x="1228" d="M72 518q0 80 75 117l809 371q68 31 103 30q98 0 98 -129q0 -74 -74 -104l-682 -285l682 -285q74 -31 74 -104q0 -129 -98 -129q-39 0 -103 29l-809 372q-76 37 -75 117z" />
<glyph unicode="=" horiz-adv-x="1228" d="M72 289q0 123 123 123h839q123 0 123 -123t-123 -123h-839q-123 0 -123 123zM72 748q0 123 123 122h839q123 0 123 -122q0 -123 -123 -123h-839q-123 0 -123 123z" />
<glyph unicode="&#x3e;" horiz-adv-x="1228" d="M72 129q0 74 73 104l682 285l-682 285q-74 31 -73 104q0 129 98 129q35 0 102 -30l809 -371q76 -37 76 -117t-76 -117l-809 -372q-63 -29 -102 -29q-98 0 -98 129z" />
<glyph unicode="?" horiz-adv-x="985" d="M6 1145q0 150 158 250q139 88 297 88q207 0 344 -117q145 -123 145 -322q0 -324 -354 -413v-74q0 -61 -41 -100q-43 -41 -106 -41q-68 0 -109 41q-39 37 -39 100v205q0 49 51 74q20 10 115 34q164 45 164 174q0 66 -53 113q-49 43 -117 43q-90 0 -180 -100 q-88 -102 -150 -103q-55 0 -90 41q-35 39 -35 107zM289 135q0 66 47 113t113 47t112 -47q47 -47 47 -113t-47 -112q-47 -47 -112 -48q-66 1 -113 48t-47 112z" />
<glyph unicode="@" horiz-adv-x="1638" d="M66 729q0 311 221 533q221 221 532 221q297 -1 520 -187q233 -195 234 -471q0 -258 -225 -409q-164 -109 -301 -109q-141 0 -142 101h-4q-84 -100 -215 -101q-127 0 -217 113q-86 106 -86 244q0 182 109 315q115 141 290 141q160 0 240 -123h4v25q0 98 115 98 q94 0 94 -57q0 -25 -8 -66l-82 -372q-8 -33 -8 -68q0 -43 47 -43q61 0 125 74q80 90 80 237q0 211 -175 346q-162 127 -395 127q-236 0 -403 -165q-166 -166 -166 -404q0 -236 166 -403q168 -166 403 -166q246 0 426 96q12 6 70 53q45 35 67 35q76 0 76 -76q0 -43 -55 -110 q-201 -182 -584 -183q-311 0 -532 222q-221 221 -221 532zM592 692q0 -70 35 -121q41 -55 108 -55q89 0 148 68q57 66 57 153q0 72 -41 121q-43 53 -115 53q-78 0 -137 -71q-55 -68 -55 -148z" />
<glyph unicode="A" horiz-adv-x="1290" d="M4 131q0 33 14 68l412 1114q63 170 219 170q160 0 219 -170l402 -1114q16 -43 16 -76q0 -59 -43 -98q-41 -37 -98 -37q-115 0 -150 106l-61 193h-569l-62 -191q-35 -108 -145 -108h-2q-61 0 -107 41q-45 41 -45 102zM453 569h389l-191 594h-4z" />
<glyph unicode="B" d="M92 156v1149q0 153 160 153h2h393q164 0 273 -98q113 -102 112 -262q0 -211 -190 -301v-4q131 -18 221 -117q90 -98 90 -232q0 -213 -131 -329q-127 -115 -344 -115h-422q-72 0 -117 41q-47 43 -47 115zM399 270h242q86 0 137 47q55 47 56 132q0 161 -215 161h-3h-217 v-340zM399 881h160q166 0 166 161q0 70 -49 109q-45 37 -117 37h-160v-307z" />
<glyph unicode="C" horiz-adv-x="1251" d="M35 729q-1 324 196 537q199 217 508 217q154 0 277 -47q164 -63 164 -183q0 -57 -35 -96q-37 -41 -92 -41q-31 0 -123 37q-94 35 -191 35q-182 0 -286 -139q-98 -127 -99 -326q0 -193 99 -317q104 -135 286 -136q96 0 197 43q98 43 129 43q61 0 102 -51q33 -43 33 -88 q0 -129 -174 -194q-127 -47 -287 -48q-309 0 -508 218q-197 215 -196 536z" />
<glyph unicode="D" horiz-adv-x="1366" d="M92 154v1146q0 70 45 115q43 43 113 43h340q340 0 532 -205q188 -199 189 -544q0 -322 -193 -516q-190 -193 -508 -193h-356q-61 0 -107 33q-55 41 -55 121zM399 283h207q190 0 291 129q94 117 94 311q0 207 -96 326q-106 127 -309 127h-187v-893z" />
<glyph unicode="E" horiz-adv-x="948" d="M92 154v1126q0 178 160 178h508q70 0 110 -43q35 -41 35 -98t-37 -96q-41 -45 -108 -45h-361v-299h336q72 0 113 -43q37 -41 37 -99q0 -57 -37 -96q-43 -45 -113 -45h-336v-311h379q70 0 111 -43q35 -41 35 -99q0 -57 -37 -96q-41 -45 -109 -45h-528q-68 0 -113 43 t-45 111z" />
<glyph unicode="F" horiz-adv-x="909" d="M92 147v1151q0 66 41 111q45 49 119 49h524q63 0 103 -43q34 -40 34 -95q0 -60 -34 -99q-37 -45 -103 -45h-377v-299h318q70 0 110 -43q37 -39 37 -97q0 -57 -37 -98q-41 -45 -110 -45h-318v-447q0 -76 -43 -118q-43 -41 -110 -41q-68 0 -111 41q-43 43 -43 118z" />
<glyph unicode="G" horiz-adv-x="1441" d="M35 729q0 324 196 537q199 217 508 217q227 0 398 -90q166 -88 166 -199q0 -66 -37 -104q-35 -39 -90 -39q-53 0 -170 75q-117 74 -267 74q-182 0 -288 -143q-96 -129 -97 -328q0 -201 95 -330q104 -141 290 -141q139 0 236 74q113 88 112 250h-208q-63 0 -103 41 q-41 39 -41 102t43 102q41 37 101 37h348q180 0 180 -196q0 -301 -180 -494q-184 -199 -488 -199q-309 0 -508 218q-197 215 -196 536z" />
<glyph unicode="H" horiz-adv-x="1441" d="M92 147v1164q0 76 43 119q42 40 108 40h3q68 0 110 -40q43 -43 43 -119v-434h643v434q0 76 43 119q42 40 108 40h3q68 0 111 -40q43 -43 43 -119v-1164q0 -76 -43 -118q-43 -41 -111 -41t-111 41q-43 43 -43 118v447h-643v-447q0 -76 -43 -118q-43 -41 -110 -41 q-68 0 -111 41q-43 43 -43 118z" />
<glyph unicode="I" horiz-adv-x="491" d="M92 147v1164q0 76 43 119q42 40 108 40h3q68 0 110 -40q43 -43 43 -119v-1164q0 -76 -43 -118q-43 -41 -110 -41q-68 0 -111 41q-43 43 -43 118z" />
<glyph unicode="J" horiz-adv-x="833" d="M-29 209q0 45 33 84q35 41 82 41q39 0 119 -37q80 -39 127 -39q115 0 114 172v881q0 76 43 119q42 40 108 40h3q68 0 111 -40q43 -43 43 -119v-901q0 -236 -133 -347q-104 -88 -273 -88q-135 0 -242 50q-135 66 -135 184z" />
<glyph unicode="K" horiz-adv-x="1251" d="M92 135v1184q0 63 43 106q43 45 111 45t110 -40q43 -41 43 -111v-442l504 536q53 57 119 57q61 0 104 -40q47 -43 48 -107q0 -63 -101 -164l-387 -381l473 -493q86 -90 86 -156q0 -68 -49 -106q-43 -35 -111 -35q-66 0 -155 96l-531 573v-522q0 -61 -43 -104t-110 -43 q-68 0 -111 41q-43 39 -43 106z" />
<glyph unicode="L" horiz-adv-x="872" d="M92 168v1143q0 76 43 119q42 40 108 40h3q68 0 110 -40q43 -43 43 -119v-1028h365q74 0 115 -47q33 -38 33 -87q0 -7 -1 -14q-2 -53 -41 -92q-41 -43 -106 -43h-512q-160 0 -160 168z" />
<glyph unicode="M" horiz-adv-x="1781" d="M49 135q0 23 2 35l191 1143q10 59 63 106q59 51 137 51q74 0 133 -45q53 -43 72 -102l242 -811h4l242 811q18 59 71 102q59 45 133 45q78 0 138 -51q53 -47 63 -106l191 -1143q2 -12 2 -35q0 -66 -43 -106q-41 -41 -105 -41q-139 0 -160 143l-120 834h-5l-245 -859 q-35 -118 -162 -118h-2q-129 0 -164 118l-246 859h-4l-121 -834q-20 -143 -159 -143q-63 0 -105 41q-43 41 -43 106z" />
<glyph unicode="N" horiz-adv-x="1402" d="M80 147v1164q0 76 43 119q42 40 107 40h3q80 0 129 -67l650 -866h4v774q0 76 43 119q42 40 107 40h3q68 0 111 -40q43 -43 43 -119v-1164q0 -76 -43 -118q-43 -41 -111 -41q-76 0 -129 67l-649 856h-4v-764q0 -76 -43 -118q-43 -41 -111 -41t-110 41q-43 43 -43 118z" />
<glyph unicode="O" horiz-adv-x="1478" d="M35 729q0 324 196 537q199 217 508 217q305 0 506 -221q199 -217 199 -533q0 -322 -195 -536q-199 -217 -510 -218q-309 1 -508 218q-197 215 -196 536zM354 729q0 -201 95 -330q104 -141 290 -141q187 0 291 141q94 129 94 330q0 199 -96 328q-106 143 -289 143 q-182 0 -288 -143q-96 -129 -97 -328z" />
<glyph unicode="P" horiz-adv-x="1138" d="M92 147v1151q0 160 160 160h362q227 0 375 -135q150 -137 150 -354q0 -219 -152 -355q-143 -131 -360 -131h-228v-336q0 -76 -43 -118q-43 -41 -110 -41q-68 0 -111 41q-43 43 -43 118zM399 754h209q94 0 154 63q57 59 57 154q0 94 -57 155q-59 61 -154 62h-209v-434z " />
<glyph unicode="Q" horiz-adv-x="1478" d="M35 729q0 324 196 537q199 217 508 217q305 0 506 -221q199 -217 199 -533q0 -276 -137 -473l116 -100q72 -63 72 -125q0 -53 -45 -92q-43 -37 -96 -37q-59 0 -137 65l-117 99q-158 -90 -361 -91q-309 0 -508 218q-197 215 -196 536zM354 729q0 -201 95 -330 q104 -141 290 -141q59 0 131 14l-73 72q-39 35 -39 82q0 61 39 104t100 43q45 0 78 -26l100 -80q49 111 49 262q0 197 -96 328q-106 143 -289 143q-182 0 -288 -143q-96 -129 -97 -328z" />
<glyph unicode="R" horiz-adv-x="1138" d="M92 147v1151q0 160 158 160h360q510 0 510 -463q0 -162 -110 -266q-102 -94 -269 -121l349 -372q41 -43 40 -91q0 -61 -43 -108q-45 -49 -110 -49q-74 0 -119 53l-455 551h-4v-445q0 -76 -43 -118q-43 -41 -110 -41q-68 0 -111 41q-43 43 -43 118zM399 813h211 q86 0 138 49q53 49 53 133q0 180 -191 181h-211v-363z" />
<glyph unicode="S" horiz-adv-x="1099" d="M39 205q0 61 37 102q39 43 100 43q43 0 158 -39q115 -41 186 -41q98 0 156 52q53 47 53 124q0 78 -106 125l-236 74q-158 49 -235 117q-106 94 -107 256q0 209 152 340q145 125 356 125q127 0 244 -41q157 -57 157 -163q0 -62 -36 -108q-39 -45 -101 -45q-37 0 -121 31 q-86 31 -151 31q-70 0 -117 -35q-51 -37 -51 -98q0 -68 106 -109q35 -14 111 -37q88 -25 125 -37q342 -119 342 -421q0 -213 -156 -349q-150 -127 -368 -127q-174 0 -308 43q-190 59 -190 187z" />
<glyph unicode="T" horiz-adv-x="983" d="M-25 1317q0 57 37 98q39 43 103 43h753q63 0 103 -43q37 -41 37 -98q0 -141 -140 -141h-223v-1029q0 -76 -43 -118q-43 -41 -110 -41q-68 0 -111 41q-43 43 -43 118v1029h-223q-70 0 -107 45q-33 39 -33 96z" />
<glyph unicode="U" horiz-adv-x="1402" d="M80 580v731q0 76 43 119q42 40 107 40h3q68 0 111 -40q43 -43 43 -119v-715q0 -145 84 -240q88 -98 231 -98q137 0 228 102q86 96 86 236v715q0 76 43 119q42 40 107 40h3q68 0 111 -40q43 -43 43 -119v-731q0 -256 -184 -430q-180 -174 -437 -175q-260 0 -440 172 q-182 174 -182 433z" />
<glyph unicode="V" horiz-adv-x="1212" d="M-8 1323q0 63 49 107q44 40 106 40h3q90 0 139 -100l317 -852l318 852q49 100 139 100q63 0 111 -40q47 -43 47 -107q0 -39 -15 -76l-448 -1141q-49 -118 -150 -118h-2q-102 0 -151 118l-449 1141q-14 37 -14 76z" />
<glyph unicode="W" horiz-adv-x="1859" d="M16 1335q0 53 39 92q43 43 107 43q133 0 164 -147l174 -870h4l266 897q37 120 158 120h2q123 0 160 -120l266 -897h4l174 870q31 147 164 147q63 0 106 -43q39 -39 39 -92q0 -35 -8 -69l-260 -1119q-39 -159 -201 -159h-2q-160 0 -203 149l-237 791h-4l-238 -791 q-43 -149 -201 -149h-2q-164 0 -202 159l-260 1119q-8 35 -9 69z" />
<glyph unicode="X" horiz-adv-x="1253" d="M8 131q0 57 35 105l406 544l-332 451q-33 43 -33 90q0 68 45 109q42 40 108 40h3q80 0 133 -75l254 -361l254 361q52 75 131 75h2q68 0 110 -40q45 -41 45 -109q0 -47 -32 -90l-332 -451l405 -544q35 -47 35 -105q0 -63 -43 -104q-45 -39 -112 -39q-78 0 -127 67 l-336 467l-336 -467q-48 -67 -125 -67h-2q-68 0 -111 39q-45 41 -45 104z" />
<glyph unicode="Y" horiz-adv-x="1097" d="M-20 1321q0 61 40 106q43 43 107 43q84 0 127 -61l295 -428l295 428q43 61 127 61q63 0 106 -43q41 -45 41 -106q0 -51 -28 -92l-388 -545v-547q0 -149 -151 -149h-2q-154 0 -154 149v547l-387 545q-29 41 -28 92z" />
<glyph unicode="Z" horiz-adv-x="1214" d="M45 147q0 61 41 119l659 922h-538q-143 0 -144 131q0 57 43 98q41 41 101 41h749q84 0 131 -47q41 -41 41 -100q0 -72 -45 -131l-655 -910h594q147 0 147 -135q0 -57 -45 -96t-102 -39h-805q-80 0 -127 41q-45 41 -45 106z" />
<glyph unicode="[" horiz-adv-x="569" d="M90 -168v1503q0 68 41 109q41 39 109 39h204q109 0 109 -117t-109 -117h-96v-1331h96q109 0 109 -117t-109 -116h-204q-68 0 -109 41q-41 39 -41 106z" />
<glyph unicode="\" horiz-adv-x="833" d="M16 1370q0 47 35 80t86 33q84 0 115 -76l547 -1262q18 -43 18 -57q0 -47 -37 -80q-35 -33 -86 -33q-82 0 -112 76l-549 1262q-16 39 -17 57z" />
<glyph unicode="]" horiz-adv-x="569" d="M16 -199q0 117 109 117h96v1331h-96q-109 0 -109 117t109 117h205q68 0 108 -39q41 -41 41 -109v-1503q0 -68 -41 -106q-41 -41 -108 -41h-205q-109 0 -109 116z" />
<glyph unicode="^" horiz-adv-x="1228" d="M150 727q0 33 26 82l330 600q33 61 108 61q76 0 109 -61l330 -600q27 -49 26 -82q0 -82 -104 -82q-72 0 -105 45l-256 473l-256 -473q-33 -45 -104 -45q-104 0 -104 82z" />
<glyph unicode="_" horiz-adv-x="1024" d="M-59 -205q0 51 59 51h1024q59 0 59 -51t-59 -51h-1024q-59 0 -59 51z" />
<glyph unicode="`" horiz-adv-x="454" d="M-25 1456q0 45 33 84q35 43 78 43q27 0 78 -20l258 -107q57 -31 57 -82q0 -55 -30 -102q-33 -47 -78 -47q-29 0 -82 20l-230 90q-84 33 -84 121z" />
<glyph unicode="a" horiz-adv-x="1087" d="M47 328q0 383 672 383v80q0 77 -126 77h-3q-98 0 -176 -49q-78 -51 -105 -51q-129 0 -129 125q0 86 139 156q129 65 267 65h4q424 0 424 -330v-639q0 -66 -39 -110q-41 -47 -105 -47q-113 0 -139 108q-77 -121 -276 -121q-184 0 -293 91q-115 92 -115 262zM330 328 q0 -107 178 -107q223 0 223 221v47q-209 0 -268 -12q-133 -33 -133 -149z" />
<glyph unicode="b" d="M84 152v1261q0 74 41 119t106 45q66 0 107 -45t41 -119v-401q119 102 280 102q223 0 357 -184q119 -166 119 -400q0 -219 -131 -380q-141 -174 -355 -175q-186 0 -270 136q-29 -123 -148 -123q-66 0 -106 45q-41 45 -41 119zM379 553q0 -121 55 -207q63 -100 176 -100 q106 0 172 96q57 86 58 201q0 117 -58 202q-66 98 -172 99q-111 0 -174 -92q-57 -80 -57 -199z" />
<glyph unicode="c" horiz-adv-x="948" d="M41 543q0 231 147 397q154 174 381 174q121 0 224 -39q137 -53 137 -147q0 -51 -31 -94q-33 -47 -82 -48q-35 0 -108 29q-76 29 -125 29q-119 0 -187 -94q-61 -84 -61 -207q0 -117 63 -203q72 -94 185 -94q41 0 125 30q82 31 94 31q51 0 90 -39q37 -37 37 -90 q0 -100 -139 -158q-109 -45 -222 -45q-233 0 -383 168q-145 164 -145 400z" />
<glyph unicode="d" d="M41 530q0 233 119 400q133 184 356 184q162 0 281 -102v401q0 74 41 119t106 45q66 0 107 -45t41 -119v-1261q0 -74 -41 -119t-107 -45q-119 0 -147 123q-82 -135 -271 -136q-213 0 -354 175q-131 162 -131 380zM336 543q0 -115 57 -201q66 -96 172 -96q113 0 176 100 q55 86 56 207q-1 119 -58 199q-63 92 -174 92q-106 0 -172 -99q-57 -86 -57 -202z" />
<glyph unicode="e" horiz-adv-x="1099" d="M20 543q0 231 148 397q154 174 381 174t385 -176q145 -162 145 -360q0 -131 -129 -132h-628q14 -104 96 -161q74 -51 182 -52q86 0 195 60q111 59 139 59q47 0 84 -39t37 -88q0 -92 -158 -172q-156 -78 -324 -78q-246 0 -401 162q-152 158 -152 406zM315 643h469 q-29 225 -235 225q-96 0 -160 -65q-63 -63 -74 -160z" />
<glyph unicode="f" horiz-adv-x="606" d="M-43 961q0 55 37 92t92 37h66v151q0 160 88 250q82 86 221 86q205 0 205 -133q0 -125 -121 -125q-49 0 -68 -14q-31 -23 -31 -95v-120h93q149 0 149 -127q0 -131 -149 -132h-93v-679q0 -74 -40 -119q-41 -45 -107 -45t-106 45q-41 45 -41 119v679h-66q-129 0 -129 130z " />
<glyph unicode="g" d="M41 541q0 231 131 397q139 176 354 176q188 0 271 -135q29 123 147 123q66 0 107 -45t41 -119v-852q0 -258 -158 -399q-150 -133 -410 -133q-133 0 -278 49q-186 66 -187 172q0 43 39 86t80 43q37 0 156 -45q119 -47 213 -47q111 0 178 61q72 63 72 172v70h-4 q-94 -139 -297 -140q-219 0 -344 172q-111 156 -111 394zM336 547q0 -127 57 -209q63 -92 172 -92q111 0 174 92q57 80 58 199q-1 120 -56 206q-63 100 -176 101q-106 0 -172 -96q-57 -86 -57 -201z" />
<glyph unicode="h" horiz-adv-x="1138" d="M84 152v1261q0 74 41 119t106 45q66 0 107 -45t41 -119v-401h4q84 102 268 102q178 0 289 -104q115 -109 115 -293v-565q0 -74 -41 -119t-107 -45t-106 45q-41 45 -41 119v514q0 98 -55 153q-53 49 -138 49q-88 0 -139 -57q-49 -57 -49 -145v-514q0 -74 -41 -119 t-107 -45t-106 45q-41 45 -41 119z" />
<glyph unicode="i" horiz-adv-x="454" d="M61 1382q0 63 50 113q51 49 116 49q66 0 117 -49q49 -49 49 -113q0 -70 -49 -118q-47 -51 -117 -52q-66 0 -116 52q-49 51 -50 118zM80 152v786q0 74 41 119t106 45q66 0 107 -45t41 -119v-786q0 -74 -41 -119t-107 -45t-106 45q-41 45 -41 119z" />
<glyph unicode="j" horiz-adv-x="454" d="M61 1382q0 63 50 113q51 49 116 49q66 0 117 -49q49 -49 49 -113q0 -70 -49 -118q-47 -51 -117 -52q-66 0 -116 52q-49 51 -50 118zM80 -283v1221q0 74 41 119t106 45q66 0 107 -45t41 -119v-1221q0 -74 -41 -118q-41 -45 -107 -45t-106 45q-41 45 -41 118z" />
<glyph unicode="k" horiz-adv-x="1024" d="M84 152v1261q0 74 41 119t106 45q66 0 107 -45t41 -119v-688l323 313q66 63 134 64q53 0 90 -41q35 -41 35 -92q0 -66 -58 -117l-262 -234l346 -405q37 -43 37 -98q0 -57 -41 -99q-39 -41 -98 -41q-68 0 -142 91l-360 444h-4v-358q0 -74 -41 -119t-107 -45t-106 45 q-41 45 -41 119z" />
<glyph unicode="l" horiz-adv-x="454" d="M80 152v1261q0 74 41 119t106 45q66 0 107 -45t41 -119v-1261q0 -74 -41 -119t-107 -45t-106 45q-41 45 -41 119z" />
<glyph unicode="m" horiz-adv-x="1744" d="M84 152v786q0 74 41 119t106 45q119 0 136 -111q113 123 274 123q186 0 305 -149q128 149 309 149h2q184 0 291 -102q113 -104 113 -295v-565q0 -74 -41 -119t-107 -45t-106 45q-41 45 -41 119v514q0 90 -45 145q-47 57 -127 57t-127 -57q-47 -55 -47 -145v-514 q0 -74 -41 -119t-107 -45t-106 45q-41 45 -41 119v514q0 90 -45 145q-47 57 -127 57q-174 0 -174 -202v-514q0 -74 -41 -119t-107 -45t-106 45q-41 45 -41 119z" />
<glyph unicode="n" horiz-adv-x="1138" d="M84 152v786q0 74 41 119t106 45q119 0 136 -109q86 121 284 121q178 0 289 -104q115 -109 115 -293v-565q0 -74 -41 -119t-107 -45t-106 45q-41 45 -41 119v514q0 98 -55 153q-53 49 -138 49q-88 0 -139 -57q-49 -57 -49 -145v-514q0 -74 -41 -119t-107 -45t-106 45 q-41 45 -41 119z" />
<glyph unicode="o" horiz-adv-x="1138" d="M41 543q0 231 147 397q154 174 381 174t381 -174q147 -166 148 -397q0 -236 -146 -400q-150 -168 -383 -168t-383 168q-145 164 -145 400zM336 543q0 -117 57 -201q63 -96 176 -96t176 96q57 84 58 201q0 119 -55 202q-66 98 -179 99q-112 -1 -178 -99q-55 -84 -55 -202z " />
<glyph unicode="p" d="M84 -283v1221q0 74 41 119t106 45q119 0 148 -123q84 135 280 135q223 0 357 -184q119 -166 119 -400q0 -219 -131 -380q-141 -174 -355 -175q-152 0 -270 103v-361q0 -74 -41 -118q-41 -45 -107 -45t-106 45q-41 45 -41 118zM379 553q0 -121 55 -207q63 -100 176 -100 q106 0 172 96q57 86 58 201q0 117 -58 202q-66 98 -172 99q-111 0 -174 -92q-57 -80 -57 -199z" />
<glyph unicode="q" d="M41 530q0 233 119 400q133 184 356 184q199 0 281 -135q29 123 147 123q66 0 107 -45t41 -119v-1221q0 -74 -41 -118q-41 -45 -107 -45t-106 45q-41 45 -41 118v361q-119 -102 -271 -103q-213 0 -354 175q-131 162 -131 380zM336 543q0 -115 57 -201q66 -96 172 -96 q113 0 176 100q55 86 56 207q-1 119 -58 199q-63 92 -174 92q-106 0 -172 -99q-57 -86 -57 -202z" />
<glyph unicode="r" horiz-adv-x="681" d="M80 152v802q0 70 49 111q43 37 102 37q143 0 144 -123h4q84 123 207 123q59 0 98 -39q45 -43 45 -119q0 -61 -55 -92q-18 -10 -56 -25l-65 -26q-90 -43 -123 -70q-55 -49 -55 -127v-452q0 -74 -41 -119t-107 -45t-106 45q-41 45 -41 119z" />
<glyph unicode="s" horiz-adv-x="872" d="M20 203q0 41 33 82q39 49 94 49t144 -49q90 -51 162 -52q116 0 116 83q0 44 -80 81q-27 12 -81 33q-66 27 -95 37q-256 109 -256 303q0 154 113 250q111 94 287 94q129 0 239 -51q129 -61 129 -162q1 -51 -34 -90q-35 -41 -86 -41q-23 0 -117 43t-148 43q-100 0 -100 -82 q0 -43 80 -82q27 -12 82 -33l94 -36q256 -109 256 -301q0 -150 -115 -246q-117 -100 -305 -101q-137 0 -268 64q-143 70 -144 164z" />
<glyph unicode="t" horiz-adv-x="606" d="M-39 961q0 55 37 92t92 37h66v176q0 74 41 118q41 45 106 46q66 0 107 -46q41 -45 41 -118v-176h84q141 0 141 -129t-141 -130h-84v-679q0 -74 -41 -119t-107 -45t-106 45q-41 45 -41 119v679h-66q-129 0 -129 130z" />
<glyph unicode="u" horiz-adv-x="1138" d="M84 373v565q0 74 41 119t106 45q66 0 107 -45t41 -119v-514q0 -98 57 -154q51 -49 135 -49q88 0 140 60q49 55 49 143v514q0 74 41 119t106 45q66 0 107 -45t41 -119v-786q0 -74 -41 -119t-107 -45q-119 0 -135 108q-86 -121 -285 -121q-178 0 -288 105 q-115 109 -115 293z" />
<glyph unicode="v" horiz-adv-x="946" d="M-2 958q0 68 47 107q43 37 107 37q98 0 131 -105l188 -581h4l189 581q33 104 131 105q63 0 106 -37q47 -39 47 -107q0 -39 -18 -86l-297 -761q-47 -123 -160 -123t-160 123l-297 761q-18 47 -18 86z" />
<glyph unicode="w" horiz-adv-x="1593" d="M14 983q0 49 41 84q43 35 107 35q104 0 139 -117l170 -563h4l172 551q39 129 150 129t149 -129l172 -551h4l170 563q35 117 140 117q147 0 147 -144q0 -31 -29 -110l-252 -711q-53 -149 -176 -149h-2q-127 0 -170 137l-151 475h-4l-152 -475q-43 -137 -170 -137 q-125 0 -178 149l-250 707q-31 90 -31 139z" />
<glyph unicode="x" horiz-adv-x="1024" d="M0 131q0 55 41 100l299 340l-250 281q-45 53 -45 106q0 57 47 101q47 43 105 43q61 0 108 -58l207 -258l207 258q47 57 108 58q57 0 105 -43q47 -43 47 -101q0 -53 -45 -106l-250 -281l299 -340q41 -45 41 -100q0 -63 -41 -104q-39 -39 -104 -39q-68 0 -123 65l-244 299 l-244 -299q-54 -65 -121 -65h-2q-66 0 -104 39q-41 41 -41 104z" />
<glyph unicode="y" horiz-adv-x="985" d="M-4 975q0 53 47 92q43 35 92 35q109 0 148 -105l202 -555l217 555q39 104 148 105q49 0 92 -35q47 -39 47 -92q0 -45 -14 -76l-494 -1229q-47 -116 -137 -116h-2q-72 0 -115 38q-39 37 -39 89q0 39 19 86l129 319l-326 813q-14 39 -14 76z" />
<glyph unicode="z" horiz-adv-x="985" d="M49 180l463 651h-342q-57 0 -94 35q-39 35 -39 95q0 59 39 96q37 33 94 33h670q96 0 96 -93q0 -47 -31 -88l-465 -651h389q57 0 95 -33q39 -37 39 -96t-39 -94q-37 -35 -95 -35h-686q-120 0 -120 98q0 39 26 82z" />
<glyph unicode="{" horiz-adv-x="681" d="M-20 584q0 98 98 98t98 135v397q0 268 273 269h126q92 0 93 -92q0 -92 -93 -93h-51q-90 0 -90 -118v-387q0 -188 -221 -207v-4q221 -18 221 -207v-387q0 -119 90 -119h51q92 0 93 -92q0 -92 -93 -92h-126q-272 0 -273 268v397q0 135 -98 135t-98 99z" />
<glyph unicode="|" horiz-adv-x="454" d="M104 98v1356q0 123 123 123t123 -123v-1356q0 -123 -123 -123t-123 123z" />
<glyph unicode="}" horiz-adv-x="681" d="M14 -223q0 92 92 92h52q90 0 90 119v387q0 188 221 207v4q-221 18 -221 207v387q0 119 -90 118h-52q-92 0 -92 93q0 92 92 92h127q272 0 273 -269v-397q0 -135 98 -135t98 -98t-98 -99q-98 0 -98 -135v-397q0 -268 -273 -268h-127q-92 0 -92 92z" />
<glyph unicode="~" horiz-adv-x="1228" d="M84 440q0 102 82 183q90 88 229 88q82 0 236 -70q152 -70 198 -70q60 1 123 64q66 61 105 61q88 0 88 -100q0 -102 -82 -182q-90 -88 -229 -88q-82 0 -236 69q-152 70 -199 70q-59 0 -123 -62q-66 -63 -104 -63q-88 0 -88 100z" />
<glyph unicode="&#xa1;" horiz-adv-x="581" d="M133 -92l31 1190h201l30 -1190h-262zM135 1260v266h258v-266h-258z" />
<glyph unicode="&#xa2;" horiz-adv-x="1374" d="M76 492q0 260 129 421q145 178 354 195v418h139v-418q184 -6 318 -131q137 -129 147 -356h-237q-12 131 -76 204q-63 78 -152 86v-831q90 10 158 84q70 74 74 209h246q-8 -231 -154 -367q-141 -127 -324 -133v-416h-139v418q-209 16 -354 195q-129 162 -129 422zM322 494 q0 -170 65 -281q72 -117 172 -133v829q-100 -12 -172 -129q-66 -109 -65 -286z" />
<glyph unicode="&#xa3;" horiz-adv-x="1351" d="M76 -92v201q166 78 166 262v231h-166v166h166v256q0 260 106 383q121 141 350 141q227 0 349 -141q106 -123 106 -309v-41h-221v43q0 106 -47 176q-57 88 -187 88q-129 0 -188 -88q-47 -66 -47 -201v-307h481v-166h-481v-196q0 -205 -72 -291h762v-207h-1077z" />
<glyph unicode="&#xa4;" horiz-adv-x="1228" d="M53 279q0 18 29 47l119 118q-94 106 -95 285q0 197 95 289l-119 119q-25 25 -29 47q0 45 25 73q25 33 69 33q35 0 60 -24l117 -117q111 90 290 90q180 0 291 -90l117 117q25 25 59 24q45 0 70 -33q25 -35 25 -73q0 -18 -29 -47l-119 -119q94 -92 94 -289q0 -178 -94 -285 l119 -118q29 -29 29 -47q0 -39 -25 -74q-25 -33 -70 -33q-37 0 -59 25l-117 120q-104 -94 -291 -94q-186 0 -290 94l-117 -120q-20 -25 -60 -25q-45 0 -69 33q-25 35 -25 74zM352 729q0 -117 76 -194q74 -78 186 -78q113 0 187 78q76 78 76 194q0 119 -74 197 q-76 80 -189 80q-112 0 -188 -80q-74 -78 -74 -197z" />
<glyph unicode="&#xa5;" horiz-adv-x="1576" d="M49 1526h260l408 -686l407 686h260l-475 -758h410v-166h-477v-203h477v-168h-477v-323h-250v323h-477v168h477v203h-477v166h409z" />
<glyph unicode="&#xa6;" horiz-adv-x="454" d="M104 98v398q0 123 123 122q123 0 123 -122v-398q0 -123 -123 -123t-123 123zM104 1057v397q0 123 123 123t123 -123v-397q0 -123 -123 -123t-123 123z" />
<glyph unicode="&#xa7;" d="M41 530q0 205 182 353q-96 106 -96 215q0 178 133 284q125 100 313 101q175 0 320 -66q186 -84 186 -237q0 -57 -41 -101q-41 -45 -96 -45q-57 0 -154 90q-94 88 -178 88q-61 0 -104 -38q-47 -41 -47 -103q0 -72 104 -119q29 -14 109 -43q80 -31 127 -51 q164 -74 231 -131q104 -90 105 -217q0 -215 -217 -365q88 -115 88 -215q0 -172 -132 -278q-123 -98 -301 -98q-184 0 -344 94q-164 96 -163 215q0 66 49 110q47 43 114 43q49 0 133 -96t175 -96q55 0 100 31q49 33 49 86q0 76 -100 129q-14 8 -221 90q-324 127 -324 370z M348 565q0 -92 105 -137l258 -109q104 61 104 150q0 92 -151 154l-226 88q-90 -68 -90 -146z" />
<glyph unicode="&#xa8;" horiz-adv-x="948" d="M92 154v1126q0 178 160 178h508q70 0 110 -43q35 -41 35 -98t-37 -96q-41 -45 -108 -45h-361v-299h336q72 0 113 -43q37 -41 37 -99q0 -57 -37 -96q-43 -45 -113 -45h-336v-311h379q70 0 111 -43q35 -41 35 -99q0 -57 -37 -96q-41 -45 -109 -45h-528q-68 0 -113 43 t-45 111zM102 1714q0 62 43 105t105 43q61 0 104 -43t43 -105q0 -61 -43 -104t-104 -43t-105 43q-43 43 -43 104zM553 1714q0 62 43 105t104 43t105 -43q43 -43 43 -105q0 -61 -43 -104t-105 -43q-61 0 -104 43t-43 104z" />
<glyph unicode="&#xa9;" horiz-adv-x="1638" d="M66 729q0 312 221 533t532 221t533 -221q221 -221 221 -533q0 -311 -221 -532t-533 -222q-311 0 -532 222q-221 221 -221 532zM250 729q0 -235 166 -403q168 -166 403 -166q238 0 404 166q166 168 166 403q0 238 -166 404t-404 165q-236 0 -403 -165q-166 -166 -166 -404 zM418 729q0 184 108 301q113 121 299 121q147 0 258 -88q96 -78 97 -156q0 -57 -17 -78q-16 -25 -65 -32q-66 0 -111 92q-49 78 -162 78q-186 0 -186 -238t186 -237q113 0 162 77q45 92 111 93q49 -8 65 -33q16 -20 17 -78q0 -78 -97 -156q-111 -88 -258 -88 q-186 0 -299 121q-109 117 -108 301z" />
<glyph unicode="&#xaa;" horiz-adv-x="923" d="M29 1153q0 168 94 281q96 111 244 110h6q170 0 211 -74v56h166v-469q0 -76 8 -99q16 -51 106 -61l-49 -141q-186 6 -213 108q-47 -98 -229 -102h-13q-141 0 -237 110q-94 109 -94 281zM199 1157q0 -113 41 -174q51 -80 153 -80t152 80q41 63 41 174q0 107 -41 170 q-55 82 -152 82q-100 0 -153 -82q-41 -61 -41 -170z" />
<glyph unicode="&#xab;" horiz-adv-x="1024" d="M76 584q0 45 49 114l199 281q31 35 88 35q53 0 88 -35q31 -31 30 -78q0 -41 -22 -78l-162 -248l162 -243q23 -33 22 -70q0 -55 -32 -92q-35 -37 -90 -37q-68 0 -103 51l-211 326q-18 27 -18 74zM494 584q0 45 49 114l198 281q31 35 88 35q53 0 89 -35q31 -31 30 -78 q0 -41 -22 -78l-162 -248l162 -243q23 -33 22 -70q0 -55 -33 -92q-35 -37 -90 -37q-68 0 -102 51l-211 326q-18 27 -18 74z" />
<glyph unicode="&#xac;" horiz-adv-x="1228" d="M72 748q0 123 123 122h839q123 0 123 -122v-465q0 -123 -123 -123t-123 123v342h-716q-123 0 -123 123z" />
<glyph unicode="&#xad;" horiz-adv-x="796" d="M63 592q0 131 117 131h436q117 0 117 -131q0 -127 -117 -127h-436q-117 0 -117 127z" />
<glyph unicode="&#xae;" horiz-adv-x="1638" d="M66 729q0 312 221 533t532 221t533 -221q221 -221 221 -533q0 -311 -221 -532t-533 -222q-311 0 -532 222q-221 221 -221 532zM250 729q0 -235 166 -403q168 -166 403 -166q238 0 404 166q166 168 166 403q0 238 -166 404t-404 165q-236 0 -403 -165q-166 -166 -166 -404 zM516 406v632q0 86 94 86h232q305 0 305 -239q0 -215 -205 -226l145 -237q12 -20 13 -43q0 -72 -96 -72q-59 0 -113 99l-129 241h-62v-241q0 -98 -92 -99q-92 0 -92 99zM700 795h154q109 0 109 90q0 92 -109 92h-154v-182z" />
<glyph unicode="&#xaf;" horiz-adv-x="884" d="M-152 1806q29 103 109 103h934q102 -23 102 -105v-14q-18 -100 -102 -100h-934q-94 0 -109 116z" />
<glyph unicode="&#xb0;" horiz-adv-x="819" d="M80 1153q0 137 96 233t234 97q137 0 233 -97q96 -96 96 -233t-96 -233t-233 -97q-137 0 -234 97q-96 96 -96 233zM240 1153q0 -70 51 -119q49 -51 119 -51t118 51q51 49 52 119q0 70 -52 119q-49 51 -118 51q-70 0 -119 -51q-51 -49 -51 -119z" />
<glyph unicode="&#xb1;" horiz-adv-x="1228" d="M72 123q0 123 123 123h839q123 0 123 -123t-123 -123h-839q-123 0 -123 123zM72 684q0 123 123 123h297v131q0 123 122 123q123 0 123 -123v-131h297q123 0 123 -123t-123 -123h-297v-131q0 -123 -123 -123t-122 123v131h-297q-123 0 -123 123z" />
<glyph unicode="&#xb2;" horiz-adv-x="1116" d="M262 1397q0 129 125 211q68 37 129 37q121 0 209 -107q47 -70 47 -141q0 -113 -106 -213l-181 -203h228q55 0 67 -61v-7q-10 -61 -69 -61h-381q-63 12 -64 63v3q0 29 45 67l297 344q20 27 21 68q0 84 -82 114q-10 2 -27 2h-6q-74 0 -106 -79q-6 -20 -9 -52 q-20 -47 -65 -47h-6q-66 14 -66 62z" />
<glyph unicode="&#xb3;" horiz-adv-x="1114" d="M248 1102q0 47 69 63q61 0 72 -63q0 -74 74 -115q25 -8 45 -8q68 0 104 76q10 23 11 39v14q0 70 -74 106l-68 15q-37 27 -37 57v2q0 63 84 64q23 0 54 39q12 25 12 47q0 51 -49 75q-14 10 -35 11q-49 0 -72 -60q-8 -78 -28 -78q-14 -16 -48 -16q-70 14 -69 62v8 q0 115 117 184q47 25 102 29q104 0 178 -92q41 -55 41 -121v-8q0 -90 -55 -142q86 -66 86 -188q0 -129 -121 -215q-68 -37 -133 -37h-4q-152 0 -236 154q-20 55 -20 98z" />
<glyph unicode="&#xb5;" horiz-adv-x="1138" d="M84 -283v1221q0 74 41 119t106 45q66 0 107 -45t41 -119v-526q0 -88 59 -142q53 -49 131 -49t133 49q57 53 58 142v526q0 74 41 119t106 45q66 0 107 -45t41 -119v-786q0 -74 -41 -119t-107 -45t-106 39q-41 39 -41 102h-4q-59 -154 -189 -154q-117 0 -184 103h-4v-361 q0 -74 -41 -118q-41 -45 -107 -45t-106 45q-41 45 -41 118z" />
<glyph unicode="&#xb6;" horiz-adv-x="1269" d="M31 1094q0 205 145 292q119 72 359 72h520q123 0 123 -123v-1646q0 -123 -123 -123t-123 123v1585h-199v-1585q0 -123 -123 -123t-123 123v1054q-221 0 -340 93q-117 92 -116 258zM487 -311h246q0 -123 -123 -123t-123 123z" />
<glyph unicode="&#xb7;" horiz-adv-x="548" d="M115 575q0 66 47 113t112 47q66 0 113 -47t47 -113q0 -68 -47 -112q-47 -47 -113 -47t-112 47q-47 47 -47 112z" />
<glyph unicode="&#xb8;" horiz-adv-x="1099" d="M20 543q0 231 148 397q154 174 381 174t385 -176q145 -162 145 -360q0 -131 -129 -132h-628q14 -104 96 -161q74 -51 182 -52q86 0 195 60q111 59 139 59q47 0 84 -39t37 -88q0 -92 -158 -172q-156 -78 -324 -78q-246 0 -401 162q-152 158 -152 406zM178 1335 q0 62 43 105t105 43q61 0 104 -43t43 -105q0 -61 -43 -104t-104 -43t-105 43q-43 43 -43 104zM315 643h469q-29 225 -235 225q-96 0 -160 -65q-63 -63 -74 -160zM629 1335q0 62 43 105t104 43t105 -43q43 -43 43 -105q0 -61 -43 -104t-105 -43q-61 0 -104 43t-43 104z" />
<glyph unicode="&#xb9;" horiz-adv-x="1116" d="M379 1573v14q0 47 102 70l62 18h14q63 -14 64 -59v-676q-12 -61 -70 -61h-4q-66 16 -66 59v582q-14 -6 -37 -7q-51 0 -65 60z" />
<glyph unicode="&#xba;" horiz-adv-x="788" d="M137 1282v4q0 135 49 250q78 117 195 117q139 0 211 -148q35 -109 35 -200v-43q0 -115 -47 -230q-76 -117 -195 -117h-6q-127 0 -199 132q-43 106 -43 235zM266 1274q0 -121 41 -199q33 -41 72 -41h4q94 0 111 166q6 29 8 84q0 100 -33 193q-37 53 -86 53q-61 0 -90 -72 q-27 -86 -27 -166v-18z" />
<glyph unicode="&#xbb;" horiz-adv-x="1024" d="M76 246q0 41 22 78l162 251l-162 240q-23 33 -22 70q0 55 35 92q33 37 88 37q68 0 102 -51l211 -326q18 -27 18 -74q0 -45 -49 -114l-198 -281q-31 -35 -88 -35q-53 0 -86 35q-33 31 -33 78zM494 246q0 41 22 78l162 251l-162 240q-23 33 -22 70q0 55 34 92q33 37 88 37 q68 0 103 -51l211 -326q18 -27 18 -74q0 -45 -49 -114l-199 -281q-31 -35 -88 -35q-53 0 -86 35q-33 31 -32 78z" />
<glyph unicode="&#xbc;" horiz-adv-x="1615" d="M37 0v25q0 33 164 235q895 1167 968 1256q35 26 70 26h14q90 0 107 -104v-6q0 -47 -146 -211q-104 -147 -993 -1295q-41 -23 -84 -22q-100 27 -100 96zM84 1417q0 76 119 94q0 5 80 21q49 0 84 -57l-2 -70v-719l2 -41q-23 -68 -80 -67q-51 0 -78 53v725l-37 -8h-35 q-53 29 -53 69zM711 242v26q373 481 426 561q28 37 69 37q53 0 82 -65l-2 -43v-434h62q68 0 79 -84q-27 -66 -84 -66h-57v-217q-35 -53 -82 -53q-80 14 -80 73v197h-344q-70 14 -69 68zM948 324h176v329h76z" />
<glyph unicode="&#xbd;" horiz-adv-x="1640" d="M25 -2v25q0 35 163 235q893 1163 967 1251q31 25 68 25h14q90 0 106 -100v-7q0 -47 -145 -210q-102 -147 -989 -1291q-41 -23 -84 -22q-100 27 -100 94zM72 1413q0 74 118 92q0 3 78 21q51 0 86 -60l-4 -67v-715l4 -41q-23 -70 -82 -70q-49 0 -75 56v721l-37 -9h-35 q-53 31 -53 72zM821 551q0 195 213 287l84 12q211 0 301 -225l2 -45v-45q0 -119 -176 -289l-168 -195h258l25 4q76 -25 76 -59v-23q-12 -66 -76 -65h-457q-63 0 -80 72q0 29 209 253q227 250 228 275l4 33v32q-31 129 -140 129q-96 0 -139 -110q0 -84 -63 -105h-23 q-53 0 -78 64z" />
<glyph unicode="&#xbe;" horiz-adv-x="1693" d="M23 883q0 35 55 69h31q72 0 79 -114q39 -106 131 -107h13q98 0 135 123l4 31q0 102 -117 143q-100 0 -100 80q14 72 100 72q55 0 80 92v26q0 61 -84 91h-18q-70 0 -99 -84v-41q-29 -53 -71 -54h-17q-70 14 -69 68v8q0 172 200 246l58 6q160 0 239 -162q16 -43 17 -78v-24 q0 -102 -70 -170q109 -72 109 -225q0 -211 -240 -291l-63 -4h-11q-207 0 -288 237zM135 -2v25q0 35 162 235q887 1157 960 1245q35 25 70 25h12q88 0 107 -105v-4q0 -45 -141 -211q-106 -145 -988 -1282q-39 -23 -81 -22q-100 27 -101 94zM801 240v26q371 475 424 555 q28 37 69 37q55 0 82 -63l-4 -45v-428h64q66 0 77 -86q-27 -63 -81 -64h-60v-215q-31 -53 -82 -53q-76 14 -76 73v195h-342q-72 14 -71 68zM1038 322h176v327h74z" />
<glyph unicode="&#xbf;" horiz-adv-x="1126" d="M20 307v6q0 156 109 289q37 43 117 117q78 74 102 102q82 92 82 226v51h240v-51q0 -184 -101 -310q-33 -41 -118 -116q-86 -80 -105 -99q-80 -94 -80 -213q0 -115 68 -178q66 -61 172 -61q131 0 201 98q57 80 57 182v49h244q-6 -207 -111 -346q-133 -182 -383 -182h-10 q-203 4 -330 106q-150 121 -154 330zM422 1260v266h258v-266h-258z" />
<glyph unicode="&#xc0;" horiz-adv-x="1290" d="M4 131q0 33 14 68l412 1114q63 170 219 170q160 0 219 -170l402 -1114q16 -43 16 -76q0 -59 -43 -98q-41 -37 -98 -37q-115 0 -150 106l-61 193h-569l-62 -191q-35 -109 -147 -108q-61 0 -107 41q-45 41 -45 102zM453 569h389l-191 594h-4z" />
<glyph unicode="&#xc1;" d="M92 156v1149q0 154 162 153h610q70 0 111 -43q35 -41 35 -98t-37 -96q-41 -45 -109 -45h-465v-295h242q236 0 367 -103q145 -113 145 -334q0 -212 -131 -329q-127 -115 -344 -115h-422q-72 0 -117 41q-47 43 -47 115zM399 270h242q86 0 137 47q55 47 56 132 q0 162 -218 161h-217v-340z" />
<glyph unicode="&#xc2;" d="M92 156v1149q0 154 162 153h393q164 0 273 -98q113 -102 112 -262q0 -211 -190 -301v-4q131 -18 221 -117q90 -98 90 -232q0 -213 -131 -329q-127 -115 -344 -115h-422q-72 0 -117 41q-47 43 -47 115zM399 270h242q86 0 137 47q55 47 56 132q0 162 -218 161h-217v-340z M399 881h160q166 0 166 161q0 70 -49 109q-45 37 -117 37h-160v-307z" />
<glyph unicode="&#xc3;" horiz-adv-x="909" d="M92 147v1151q0 66 41 111q45 49 119 49h524q63 0 103 -43q35 -41 34 -98q0 -57 -34 -96q-37 -45 -103 -45h-377v-1029q0 -76 -43 -118q-43 -41 -110 -41q-68 0 -111 41q-43 43 -43 118z" />
<glyph unicode="&#xc4;" horiz-adv-x="1503" d="M10 111q0 74 45 118q43 41 109 41q45 0 96 252q49 248 49 453v323q0 74 45 119q41 41 109 41h692q68 0 109 -41q45 -45 45 -119v-1028h30q68 0 109 -41q45 -45 45 -118v-283q0 -76 -43 -119q-43 -41 -111 -41t-110 41q-43 43 -43 119v172h-869v-172q0 -76 -43 -119 q-43 -41 -110 -41q-68 0 -111 41q-43 43 -43 119v283zM498 270h503v918h-385v-193q0 -461 -118 -725z" />
<glyph unicode="&#xc5;" horiz-adv-x="948" d="M92 154v1126q0 178 160 178h508q70 0 110 -43q35 -41 35 -98t-37 -96q-41 -45 -108 -45h-361v-299h336q72 0 113 -43q37 -41 37 -99q0 -57 -37 -96q-43 -45 -113 -45h-336v-311h379q70 0 111 -43q35 -41 35 -99q0 -57 -37 -96q-41 -45 -109 -45h-528q-68 0 -113 43 t-45 111z" />
<glyph unicode="&#xc6;" horiz-adv-x="2007" d="M4 129q0 66 86 156l473 493l-387 381q-100 100 -100 164q0 63 47 107q43 41 104 40q66 0 119 -57l504 -536v442q0 63 43 106q43 45 111 45t110 -40q43 -41 43 -111v-442l504 536q53 57 119 57q61 0 104 -40q47 -43 47 -107q0 -63 -100 -164l-387 -381l473 -493 q86 -90 86 -156q0 -67 -49 -106q-43 -35 -111 -35q-66 0 -155 96l-531 573v-522q0 -61 -43 -104t-110 -43q-68 0 -111 41q-43 39 -43 106v522l-531 -573q-90 -96 -155 -96q-68 0 -111 35q-49 39 -49 106z" />
<glyph unicode="&#xc7;" horiz-adv-x="1099" d="M25 217q-1 61 36 102q39 43 101 43q37 0 139 -51q102 -53 207 -53q80 0 137 55q55 55 55 136q0 102 -65 145q-39 25 -139 39q-164 23 -164 133q0 78 59 111q18 8 125 36q127 35 127 150q0 59 -39 98q-41 39 -108 39q-80 0 -172 -43t-127 -43q-61 0 -101 45 q-37 45 -37 107q0 109 168 170q131 47 287 47q211 0 330 -111q106 -100 106 -264q0 -231 -180 -313q117 -31 191 -138q72 -104 71 -229q0 -190 -141 -317q-145 -135 -375 -136q-166 0 -305 50q-186 66 -186 192z" />
<glyph unicode="&#xc8;" horiz-adv-x="1441" d="M92 147v1164q0 76 43 119q43 41 111 40q68 0 110 -40q43 -43 43 -119v-774h4l664 866q53 68 129 67q68 0 111 -40q43 -43 43 -119v-1164q0 -76 -43 -118q-43 -41 -111 -41t-111 41q-43 43 -43 118v764h-4l-663 -856q-51 -68 -129 -67q-68 0 -111 41q-43 43 -43 118z" />
<glyph unicode="&#xc9;" horiz-adv-x="1441" d="M92 147v1164q0 76 43 119q43 41 111 40q68 0 110 -40q43 -43 43 -119v-774h4l664 866q53 68 129 67q68 0 111 -40q43 -43 43 -119v-1164q0 -76 -43 -118q-43 -41 -111 -41t-111 41q-43 43 -43 118v764h-4l-663 -856q-51 -68 -129 -67q-68 0 -111 41q-43 43 -43 118z M385 1759q0 123 92 123q68 0 113 -70q47 -70 135 -69q92 0 143 69q51 70 123 70q37 0 66 -41q27 -39 26 -82q0 -102 -116 -162q-100 -51 -242 -51q-131 0 -225 49q-115 57 -115 164z" />
<glyph unicode="&#xca;" horiz-adv-x="1251" d="M92 135v1184q0 63 43 106q43 45 111 45t110 -40q43 -41 43 -111v-442l504 536q53 57 119 57q61 0 104 -40q47 -43 48 -107q0 -63 -101 -164l-387 -381l473 -493q86 -90 86 -156q0 -68 -49 -106q-43 -35 -111 -35q-66 0 -155 96l-531 573v-522q0 -61 -43 -104t-110 -43 q-68 0 -111 41q-43 39 -43 106z" />
<glyph unicode="&#xcb;" horiz-adv-x="1441" d="M25 129q0 90 114 143q190 84 191 396v630q0 74 45 119q41 41 108 41h713q68 0 109 -41q45 -45 45 -119v-1151q0 -76 -43 -118q-43 -41 -111 -41t-111 41q-43 43 -43 118v1041h-405v-459q0 -438 -229 -637q-123 -104 -244 -104q-70 0 -107 45q-33 39 -32 96z" />
<glyph unicode="&#xcc;" horiz-adv-x="1781" d="M49 135q0 23 2 35l191 1143q10 59 63 106q59 51 137 51q74 0 133 -45q53 -43 72 -102l242 -811h4l242 811q18 59 71 102q59 45 133 45q78 0 138 -51q53 -47 63 -106l191 -1143q2 -12 2 -35q0 -66 -43 -106q-41 -41 -105 -41q-139 0 -160 143l-120 834h-5l-245 -859 q-35 -119 -164 -118q-129 0 -164 118l-246 859h-4l-121 -834q-20 -143 -159 -143q-63 0 -105 41q-43 41 -43 106z" />
<glyph unicode="&#xcd;" horiz-adv-x="1441" d="M92 147v1164q0 76 43 119q43 41 111 40q68 0 110 -40q43 -43 43 -119v-434h643v434q0 76 43 119q43 41 111 40q68 0 111 -40q43 -43 43 -119v-1164q0 -76 -43 -118q-43 -41 -111 -41t-111 41q-43 43 -43 118v447h-643v-447q0 -76 -43 -118q-43 -41 -110 -41 q-68 0 -111 41q-43 43 -43 118z" />
<glyph unicode="&#xce;" horiz-adv-x="1478" d="M35 729q0 324 196 537q199 217 508 217q305 0 506 -221q199 -217 199 -533q0 -322 -195 -536q-199 -217 -510 -218q-309 1 -508 218q-197 215 -196 536zM354 729q0 -201 95 -330q104 -141 290 -141q187 0 291 141q94 129 94 330q0 199 -96 328q-106 143 -289 143 q-182 0 -288 -143q-96 -129 -97 -328z" />
<glyph unicode="&#xcf;" horiz-adv-x="1441" d="M92 147v1151q0 74 45 119q41 41 109 41h950q68 0 109 -41q45 -45 45 -119v-1151q0 -76 -43 -118q-43 -41 -111 -41t-111 41q-43 43 -43 118v1041h-643v-1041q0 -76 -43 -118q-43 -41 -110 -41q-68 0 -111 41q-43 43 -43 118z" />
<glyph unicode="&#xd0;" horiz-adv-x="1138" d="M92 147v1151q0 160 160 160h362q227 0 375 -135q150 -137 150 -354q0 -219 -152 -355q-143 -131 -360 -131h-228v-336q0 -76 -43 -118q-43 -41 -110 -41q-68 0 -111 41q-43 43 -43 118zM399 754h209q94 0 154 63q57 59 57 154q0 94 -57 155q-59 61 -154 62h-209v-434z " />
<glyph unicode="&#xd1;" horiz-adv-x="1251" d="M35 729q-1 324 196 537q199 217 508 217q154 0 277 -47q164 -63 164 -183q0 -57 -35 -96q-37 -41 -92 -41q-31 0 -123 37q-94 35 -191 35q-182 0 -286 -139q-98 -127 -99 -326q0 -193 99 -317q104 -135 286 -136q96 0 197 43q98 43 129 43q61 0 102 -51q33 -43 33 -88 q0 -129 -174 -194q-127 -47 -287 -48q-309 0 -508 218q-197 215 -196 536z" />
<glyph unicode="&#xd2;" horiz-adv-x="983" d="M-25 1317q0 57 37 98q39 43 103 43h753q63 0 103 -43q37 -41 37 -98q0 -141 -140 -141h-223v-1029q0 -76 -43 -118q-43 -41 -110 -41q-68 0 -111 41q-43 43 -43 118v1029h-223q-70 0 -107 45q-33 39 -33 96z" />
<glyph unicode="&#xd3;" horiz-adv-x="1097" d="M-16 1323q0 61 51 107q49 41 112 40q88 0 132 -90l270 -551l252 551q41 90 135 90q61 0 111 -40q49 -43 49 -107q-1 -31 -17 -70l-538 -1175q-43 -90 -131 -90q-63 0 -113 41q-51 43 -51 106q0 31 16 70l119 260l-381 786q-16 33 -16 72z" />
<glyph unicode="&#xd4;" horiz-adv-x="1710" d="M31 735q0 238 145 402q152 168 379 168q57 0 145 -17v23q0 76 43 119q43 41 111 40q68 0 111 -40q43 -43 43 -119v-23q88 16 145 17q227 0 379 -168q145 -164 145 -402q0 -235 -147 -399q-152 -168 -377 -168q-72 0 -145 20v-41q0 -76 -43 -118q-43 -41 -111 -41t-111 41 q-43 43 -43 118v41q-74 -20 -145 -20q-225 0 -375 168q-150 164 -149 399zM350 735q0 -127 84 -207q80 -78 197 -77q29 0 78 16v541q-47 14 -78 14q-115 0 -197 -80q-84 -82 -84 -207zM999 467q49 -16 78 -16q117 0 197 77q84 80 84 207q0 125 -84 207q-82 80 -197 80 q-31 0 -78 -14v-541z" />
<glyph unicode="&#xd5;" horiz-adv-x="1253" d="M8 131q0 57 35 105l406 544l-332 451q-33 43 -33 90q0 68 45 109q43 41 111 40q80 0 133 -75l254 -361l254 361q53 76 133 75q68 0 110 -40q45 -41 45 -109q0 -47 -32 -90l-332 -451l405 -544q35 -47 35 -105q0 -63 -43 -104q-45 -39 -112 -39q-78 0 -127 67l-336 467 l-336 -467q-49 -68 -127 -67q-68 0 -111 39q-45 41 -45 104z" />
<glyph unicode="&#xd6;" horiz-adv-x="1544" d="M92 160v1151q0 76 43 119q43 41 111 40q68 0 110 -40q43 -43 43 -119v-1041h643v1041q0 76 43 119q43 41 111 40q68 0 111 -40q43 -43 43 -119v-1041h51q68 0 108 -41q45 -45 45 -118v-283q0 -76 -43 -119q-43 -41 -110 -41q-68 0 -111 41q-43 43 -43 119v172h-1001 q-68 0 -109 41q-45 45 -45 119z" />
<glyph unicode="&#xd7;" horiz-adv-x="1290" d="M72 995v316q0 76 43 119q43 41 110 40q68 0 111 -40q43 -43 43 -119v-299q0 -102 82 -166q80 -59 201 -60h229v525q0 76 43 119q43 41 110 40q68 0 111 -40q43 -43 43 -119v-1164q0 -76 -43 -118q-43 -41 -111 -41t-110 41q-43 43 -43 118v357h-250q-244 0 -405 135 q-164 139 -164 356z" />
<glyph unicode="&#xd8;" horiz-adv-x="2088" d="M92 160v1151q0 76 43 119q43 41 111 40q68 0 110 -40q43 -43 43 -119v-1041h500v1041q0 76 43 119q43 41 111 40q68 0 110 -40q43 -43 43 -119v-1041h500v1041q0 76 43 119q43 41 111 40q68 0 110 -40q43 -43 43 -119v-1151q0 -74 -45 -119q-41 -41 -108 -41h-1614 q-68 0 -109 41q-45 45 -45 119z" />
<glyph unicode="&#xd9;" horiz-adv-x="2191" d="M92 160v1151q0 76 43 119q43 41 111 40q68 0 110 -40q43 -43 43 -119v-1041h500v1041q0 76 43 119q43 41 111 40q68 0 110 -40q43 -43 43 -119v-1041h500v1041q0 76 43 119q43 41 111 40q68 0 110 -40q43 -43 43 -119v-1041h51q68 0 109 -41q45 -45 45 -118v-283 q0 -76 -43 -119q-43 -41 -111 -41t-110 41q-43 43 -43 119v172h-1665q-68 0 -109 41q-45 45 -45 119z" />
<glyph unicode="&#xda;" horiz-adv-x="1484" d="M-25 1317q0 57 37 98q39 43 103 43h458q68 0 111 -41q43 -43 43 -119v-397h201q233 0 366 -108q145 -117 146 -338q0 -213 -131 -336q-129 -119 -344 -119h-381q-72 0 -117 41q-47 43 -47 115v1020h-305q-70 0 -107 45q-33 39 -33 96zM727 270h201q84 0 137 52 q55 53 55 137q0 76 -55 123q-57 49 -162 49h-176v-361z" />
<glyph unicode="&#xdb;" horiz-adv-x="1689" d="M92 156v1155q0 76 43 119q43 41 111 40q68 0 110 -40q43 -43 43 -119v-410h211q233 0 367 -108q145 -117 145 -338q0 -213 -131 -336q-129 -119 -344 -119h-391q-72 0 -117 41q-47 43 -47 115zM399 270h211q84 0 138 52q55 53 55 137q0 76 -55 123q-57 49 -162 49h-187 v-361zM1290 147v1164q0 76 43 119q43 41 111 40q68 0 110 -40q43 -43 43 -119v-1164q0 -76 -43 -118q-43 -41 -110 -41q-68 0 -111 41q-43 43 -43 118z" />
<glyph unicode="&#xdc;" horiz-adv-x="1138" d="M92 156v1155q0 76 43 119q43 41 111 40q68 0 110 -40q43 -43 43 -119v-410h211q233 0 367 -108q145 -117 145 -338q0 -213 -131 -336q-129 -119 -344 -119h-391q-72 0 -117 41q-47 43 -47 115zM399 270h211q84 0 138 52q55 53 55 137q0 76 -55 123q-57 49 -162 49h-187 v-361z" />
<glyph unicode="&#xdd;" horiz-adv-x="1251" d="M57 217q0 45 33 88q41 51 103 51q31 0 129 -43q100 -43 196 -43q147 0 248 92q92 86 125 232h-426q-70 0 -111 45q-39 39 -39 96t37 99q41 43 113 43h420q-76 311 -367 311q-96 0 -190 -35q-92 -37 -123 -37q-55 0 -92 41q-35 39 -35 96q0 119 164 183q125 47 276 47 q309 0 510 -217q195 -213 195 -537q0 -322 -197 -536q-199 -217 -508 -218q-160 0 -287 48q-174 66 -174 194z" />
<glyph unicode="&#xde;" horiz-adv-x="2048" d="M92 147v1164q0 76 43 119q43 41 111 40q68 0 110 -40q43 -43 43 -119v-434h203q43 268 229 436q190 170 463 170q305 0 506 -221q199 -217 199 -533q0 -322 -195 -536q-199 -217 -510 -218q-274 0 -465 177q-186 170 -229 442h-201v-447q0 -76 -43 -118q-43 -41 -110 -41 q-68 0 -111 41q-43 43 -43 118zM909 729q0 -201 95 -330q104 -141 290 -141t291 141q94 129 94 330q0 199 -96 328q-106 143 -289 143q-182 0 -288 -143q-96 -129 -97 -328z" />
<glyph unicode="&#xdf;" horiz-adv-x="1138" d="M39 145q0 47 41 91l348 372q-166 27 -268 121q-111 104 -111 266q0 463 510 463h361q158 0 157 -160v-1151q0 -76 -43 -118q-43 -41 -110 -41q-68 0 -111 41q-43 43 -43 118v445h-4l-455 -551q-45 -53 -118 -53q-66 0 -111 49q-43 47 -43 108zM369 995q0 -84 53 -133 q51 -49 137 -49h211v363h-211q-190 0 -190 -181z" />
<glyph unicode="&#xe0;" horiz-adv-x="1087" d="M47 328q0 383 672 383v80q0 78 -129 77q-98 0 -176 -49q-78 -51 -105 -51q-129 0 -129 125q0 86 139 156q131 66 271 65q424 0 424 -330v-639q0 -66 -39 -110q-41 -47 -105 -47q-113 0 -139 108q-77 -121 -276 -121q-184 0 -293 91q-115 92 -115 262zM330 328 q0 -107 178 -107q223 0 223 221v47q-209 0 -268 -12q-133 -33 -133 -149z" />
<glyph unicode="&#xe1;" horiz-adv-x="1138" d="M41 678q0 403 166 565q170 162 545 191q23 2 69 26q43 23 68 23q57 0 96 -39t39 -86q0 -66 -55 -117q-63 -55 -168 -61q-268 -12 -402 -82q-98 -51 -106 -152l6 -6q100 129 291 129q213 0 362 -166q145 -164 146 -383q-1 -227 -146 -383q-150 -162 -383 -162 q-371 0 -491 361q-37 111 -37 342zM336 530q0 -113 57 -192q63 -92 176 -92t176 92q57 80 58 192q0 115 -55 195q-66 94 -179 94t-178 -94q-55 -80 -55 -195z" />
<glyph unicode="&#xe2;" horiz-adv-x="1067" d="M84 137v817q0 55 43 97q41 39 98 39h396q123 0 202 -74q84 -76 84 -197q0 -158 -141 -223v-4q98 -14 166 -86q68 -76 67 -174q0 -158 -98 -246q-96 -86 -258 -86h-418q-57 0 -98 41q-43 39 -43 96zM375 203h180q143 0 143 133q0 121 -161 121h-162v-254zM375 657h119 q123 0 122 121q0 109 -122 109h-119v-230z" />
<glyph unicode="&#xe3;" horiz-adv-x="839" d="M74 152v809q0 53 37 92q37 37 92 37h495q141 0 142 -129q0 -129 -142 -130h-329v-679q0 -74 -41 -119t-107 -45t-106 45q-41 45 -41 119z" />
<glyph unicode="&#xe4;" horiz-adv-x="1224" d="M8 94q0 74 41 119t107 45h16q74 256 74 668q0 164 147 164h525q66 0 106 -46q41 -45 41 -118v-668h16q66 0 107 -45t41 -119v-241q0 -74 -41 -119t-107 -45t-106 45q-41 45 -41 119v147h-631v-147q0 -74 -41 -119t-106 -45q-66 0 -107 45t-41 119v241zM459 242h327v610 h-251q-10 -367 -76 -610z" />
<glyph unicode="&#xe5;" horiz-adv-x="1099" d="M20 543q0 231 148 397q154 174 381 174t385 -176q145 -162 145 -360q0 -131 -129 -132h-628q14 -104 96 -161q74 -51 182 -52q86 0 195 60q111 59 139 59q47 0 84 -39t37 -88q0 -92 -158 -172q-156 -78 -324 -78q-246 0 -401 162q-152 158 -152 406zM315 643h469 q-29 225 -235 225q-96 0 -160 -65q-63 -63 -74 -160z" />
<glyph unicode="&#xe6;" horiz-adv-x="1593" d="M6 127q0 61 37 98l358 346l-274 281q-57 61 -57 117q0 51 34 92q37 41 91 41q78 0 133 -64l323 -370v270q0 74 41 119t107 45t106 -45q41 -45 41 -119v-270l324 370q55 63 133 64q53 0 90 -41q35 -41 35 -92q0 -55 -58 -117l-274 -281l358 -346q37 -37 37 -98 q0 -57 -41 -98q-39 -41 -98 -41q-55 0 -141 90l-361 383h-4v-309q0 -74 -41 -119t-106 -45q-66 0 -107 45t-41 119v309h-4l-360 -383q-86 -90 -142 -90q-57 0 -98 41t-41 98z" />
<glyph unicode="&#xe7;" horiz-adv-x="907" d="M41 201q0 41 33 82q39 49 94 49t127 -49q74 -49 145 -50q129 0 129 99q0 104 -131 129q-70 10 -92 24q-41 25 -41 86q0 84 111 111t110 102q0 72 -90 72q-53 0 -133 -43t-102 -43q-51 0 -86 41q-35 39 -35 90q0 98 135 162q115 51 246 51q164 0 258 -88q82 -80 82 -197 q0 -168 -133 -235q84 -27 137 -107q51 -78 51 -170q0 -145 -102 -241q-109 -100 -293 -101q-164 0 -289 64q-131 66 -131 162z" />
<glyph unicode="&#xe8;" horiz-adv-x="1138" d="M84 152v786q0 74 41 119t106 45q66 0 107 -45t41 -119v-426h4l377 500q70 90 147 90q66 0 107 -45t41 -119v-786q0 -74 -41 -119t-107 -45t-106 45q-41 45 -41 119v434h-4l-404 -531q-51 -68 -121 -67q-66 0 -106 45q-41 45 -41 119z" />
<glyph unicode="&#xe9;" horiz-adv-x="1138" d="M84 152v786q0 74 41 119t106 45q66 0 107 -45t41 -119v-426h4l377 500q70 90 147 90q66 0 107 -45t41 -119v-786q0 -74 -41 -119t-107 -45t-106 45q-41 45 -41 119v434h-4l-404 -531q-51 -68 -121 -67q-66 0 -106 45q-41 45 -41 119zM268 1360q0 123 92 123q63 0 113 -70 q49 -70 113 -70q53 0 104 70t121 70q37 0 66 -41q27 -39 26 -82q0 -100 -112 -162q-94 -51 -205 -51q-115 0 -205 49q-113 59 -113 164z" />
<glyph unicode="&#xea;" horiz-adv-x="1024" d="M84 152v786q0 74 41 119t106 45q66 0 107 -45t41 -119v-270l323 370q55 63 134 64q53 0 90 -41q35 -41 35 -92q0 -55 -58 -117l-274 -281l358 -346q37 -37 37 -98q0 -57 -41 -98q-39 -41 -98 -41q-55 0 -142 90l-360 383h-4v-309q0 -74 -41 -119t-107 -45t-106 45 q-41 45 -41 119z" />
<glyph unicode="&#xeb;" horiz-adv-x="1138" d="M4 119q0 92 90 121q121 37 121 252v434q0 74 41 118q41 45 106 46h545q66 0 107 -46q41 -45 41 -118v-774q0 -74 -41 -119t-107 -45t-106 45q-41 45 -41 119v679h-250v-305q0 -260 -107 -403q-100 -135 -270 -135q-59 0 -94 41q-35 37 -35 90z" />
<glyph unicode="&#xec;" horiz-adv-x="1478" d="M47 129q0 18 2 29l148 815q8 49 59 86q53 43 125 43q66 0 121 -39q49 -35 63 -82l170 -539h4l168 539q14 47 64 82q55 39 121 39q72 0 127 -43q51 -37 59 -86l147 -815q2 -10 2 -29q1 -59 -38 -100t-101 -41q-135 0 -153 131l-76 538h-4l-166 -565q-31 -104 -154 -104 q-121 0 -153 104l-164 565h-4l-74 -538q-18 -131 -154 -131q-59 0 -100 41q-39 41 -39 100z" />
<glyph unicode="&#xed;" horiz-adv-x="1138" d="M84 152v786q0 74 41 119t106 45q66 0 107 -45t41 -119v-242h381v242q0 74 41 119t106 45q66 0 107 -45t41 -119v-786q0 -74 -41 -119t-107 -45t-106 45q-41 45 -41 119v286h-381v-286q0 -74 -41 -119t-107 -45t-106 45q-41 45 -41 119z" />
<glyph unicode="&#xee;" horiz-adv-x="1138" d="M41 543q0 231 147 397q154 174 381 174t381 -174q147 -166 148 -397q0 -236 -146 -400q-150 -168 -383 -168t-383 168q-145 164 -145 400zM336 543q0 -117 57 -201q63 -96 176 -96t176 96q57 84 58 201q0 119 -55 202q-66 98 -179 99q-112 -1 -178 -99q-55 -84 -55 -202z " />
<glyph unicode="&#xef;" horiz-adv-x="1138" d="M84 152v774q0 74 41 118q41 45 106 46h676q66 0 107 -46q41 -45 41 -118v-774q0 -74 -41 -119t-107 -45t-106 45q-41 45 -41 119v679h-381v-679q0 -74 -41 -119t-107 -45t-106 45q-41 45 -41 119z" />
<glyph unicode="&#xf0;" d="M84 -283v1221q0 74 41 119t106 45q119 0 148 -123q84 135 280 135q223 0 357 -184q119 -166 119 -400q0 -219 -131 -380q-141 -174 -355 -175q-152 0 -270 103v-361q0 -74 -41 -118q-41 -45 -107 -45t-106 45q-41 45 -41 118zM379 553q0 -121 55 -207q63 -100 176 -100 q106 0 172 96q57 86 58 201q0 117 -58 202q-66 98 -172 99q-111 0 -174 -92q-57 -80 -57 -199z" />
<glyph unicode="&#xf1;" horiz-adv-x="948" d="M41 543q0 231 147 397q154 174 381 174q121 0 224 -39q137 -53 137 -147q0 -51 -31 -94q-33 -47 -82 -48q-35 0 -108 29q-76 29 -125 29q-119 0 -187 -94q-61 -84 -61 -207q0 -117 63 -203q72 -94 185 -94q41 0 125 30q82 31 94 31q51 0 90 -39q37 -37 37 -90 q0 -100 -139 -158q-109 -45 -222 -45q-233 0 -383 168q-145 164 -145 400z" />
<glyph unicode="&#xf2;" horiz-adv-x="978" d="M0 961q0 55 37 92t92 37h709q141 0 141 -129t-141 -130h-207v-679q0 -74 -41 -119t-107 -45t-106 45q-41 45 -41 119v679h-207q-129 0 -129 130z" />
<glyph unicode="&#xf3;" horiz-adv-x="985" d="M-4 975q0 53 47 92q43 35 92 35q109 0 148 -105l202 -555l217 555q39 104 148 105q49 0 92 -35q47 -39 47 -92q0 -45 -14 -76l-494 -1229q-47 -117 -139 -116q-72 0 -115 38q-39 37 -39 89q0 39 19 86l129 319l-326 813q-14 39 -14 76z" />
<glyph unicode="&#xf4;" horiz-adv-x="1736" d="M39 530q0 238 106 400q119 184 332 184q162 0 242 -108v313q0 74 41 119t106 45q66 0 107 -45t41 -119v-313q80 109 241 108q213 0 334 -184q104 -162 105 -400q0 -222 -115 -380q-127 -174 -332 -175q-133 0 -233 88v-346q0 -74 -41 -118q-41 -45 -107 -45t-106 45 q-41 45 -41 118v346q-100 -88 -234 -88q-203 0 -329 175q-117 158 -117 380zM334 543q0 -115 51 -201q57 -96 158 -96q123 0 176 137v332q-53 129 -176 129q-100 0 -158 -99q-51 -86 -51 -202zM1014 383q53 -137 176 -137q100 0 158 96q51 86 51 201q0 116 -51 202 q-59 98 -158 99q-123 0 -176 -129v-332z" />
<glyph unicode="&#xf5;" horiz-adv-x="1024" d="M0 131q0 55 41 100l299 340l-250 281q-45 53 -45 106q0 57 47 101q47 43 105 43q61 0 108 -58l207 -258l207 258q47 57 108 58q57 0 105 -43q47 -43 47 -101q0 -53 -45 -106l-250 -281l299 -340q41 -45 41 -100q0 -63 -41 -104q-39 -39 -104 -39q-68 0 -123 65l-244 299 l-244 -299q-55 -66 -123 -65q-66 0 -104 39q-41 41 -41 104z" />
<glyph unicode="&#xf6;" horiz-adv-x="1214" d="M84 164v774q0 74 41 119t106 45q66 0 107 -45t41 -119v-680h381v680q0 74 41 119t106 45q66 0 107 -45t41 -119v-680h16q66 0 107 -45t41 -119v-241q0 -74 -41 -119t-107 -45t-106 45q-41 45 -41 119v147h-693q-66 0 -106 45q-41 45 -41 119z" />
<glyph unicode="&#xf7;" horiz-adv-x="1067" d="M76 745v193q0 74 41 119t106 45q66 0 107 -45t41 -119v-180q0 -123 170 -123h149v303q0 74 41 119t107 45t106 -45q41 -45 41 -119v-786q0 -74 -41 -119t-106 -45q-66 0 -107 45t-41 119v225h-188q-182 0 -303 102q-123 104 -123 266z" />
<glyph unicode="&#xf8;" horiz-adv-x="1638" d="M84 164v774q0 74 41 119t106 45q66 0 107 -45t41 -119v-680h299v680q0 74 41 119t106 45q66 0 107 -45t41 -119v-680h299v680q0 74 41 119t106 45q66 0 107 -45t41 -119v-774q0 -74 -41 -119t-107 -45h-1188q-66 0 -106 45q-41 45 -41 119z" />
<glyph unicode="&#xf9;" horiz-adv-x="1730" d="M84 164v774q0 74 41 119t106 45q66 0 107 -45t41 -119v-680h299v680q0 74 41 119t106 45q66 0 107 -45t41 -119v-680h299v680q0 74 41 119t106 45q66 0 107 -45t41 -119v-680h16q66 0 107 -45t41 -119v-241q0 -74 -41 -119t-107 -45t-106 45q-41 45 -41 119v147h-1205 q-66 0 -106 45q-41 45 -41 119z" />
<glyph unicode="&#xfa;" horiz-adv-x="1275" d="M0 961q0 55 37 92t92 37h354q66 0 107 -46q41 -45 41 -118v-230h209q180 0 284 -84q111 -90 111 -262q0 -164 -102 -258q-98 -92 -265 -92h-385q-66 0 -106 45q-41 45 -41 119v667h-207q-129 0 -129 130zM631 244h194q115 0 115 110q0 99 -127 99h-182v-209z" />
<glyph unicode="&#xfb;" horiz-adv-x="1499" d="M84 164v774q0 74 41 119t106 45q66 0 107 -45t41 -119v-242h209q180 0 284 -84q111 -90 111 -262q0 -164 -102 -258q-98 -92 -265 -92h-385q-66 0 -106 45q-41 45 -41 119zM379 244h194q115 0 115 110q0 98 -127 99h-182v-209zM1128 152v786q0 74 41 119t107 45t106 -45 q41 -45 41 -119v-786q0 -74 -41 -119t-106 -45q-66 0 -107 45t-41 119z" />
<glyph unicode="&#xfc;" horiz-adv-x="1024" d="M84 164v774q0 74 41 119t106 45q66 0 107 -45t41 -119v-242h209q180 0 284 -84q111 -90 111 -262q0 -164 -102 -258q-98 -92 -265 -92h-385q-66 0 -106 45q-41 45 -41 119zM379 244h194q115 0 115 110q0 98 -127 99h-182v-209z" />
<glyph unicode="&#xfd;" horiz-adv-x="948" d="M27 178q0 53 36 90q39 39 91 39q12 0 94 -31q84 -31 125 -30q182 0 235 205h-227q-127 0 -127 116q0 117 127 117h215q-63 160 -223 160q-49 0 -125 -29q-74 -29 -109 -29q-49 0 -82 48q-31 43 -30 94q0 94 137 147q102 39 223 39q227 0 381 -174q147 -166 147 -397 q0 -236 -145 -400q-150 -168 -383 -168q-113 0 -219 45q-141 57 -141 158z" />
<glyph unicode="&#xfe;" horiz-adv-x="1593" d="M84 152v786q0 74 41 119t106 45q66 0 107 -45t41 -119v-242h127q47 182 182 297q141 121 328 121q227 0 381 -174q147 -166 147 -397q0 -236 -145 -400q-150 -168 -383 -168q-205 0 -348 134q-139 129 -172 329h-117v-286q0 -74 -41 -119t-107 -45t-106 45 q-41 45 -41 119zM782 543q0 -117 58 -201q63 -96 176 -96t176 96q57 84 57 201q0 118 -55 202q-66 98 -178 99q-113 0 -178 -99q-55 -84 -56 -202z" />
<glyph unicode="&#xff;" horiz-adv-x="983" d="M45 129q0 45 37 82l233 250q-246 61 -245 282q0 346 381 347h305q66 0 106 -46q41 -45 41 -118v-774q0 -74 -41 -119t-106 -45q-66 0 -107 45t-41 119v262h-4l-313 -379q-39 -47 -107 -47q-59 0 -100 43q-39 43 -39 98zM365 743q0 -135 143 -135h100v271h-100 q-143 0 -143 -136z" />
<glyph unicode="&#x152;" horiz-adv-x="1773" d="M98 641q0 154 37 277.5t112 212t185.5 135.5t257.5 47q76 0 145.5 -16.5t122.5 -45.5q6 25 22.5 34t35.5 9h608q8 0 14.5 -4t10.5 -13t7 -22.5t3 -33.5q0 -18 -3 -31.5t-7 -22t-10.5 -12.5t-14.5 -4h-506v-408h434q8 0 14.5 -4t10.5 -12t6 -22.5t2 -32.5t-2 -31.5t-6 -23 t-10 -13.5t-15 -4h-434v-457h514q6 0 13.5 -4t12.5 -12t6 -22.5t1 -32.5t-1 -31.5t-6 -23t-12.5 -13.5t-13.5 -4h-616q-18 0 -35.5 10t-22.5 37q-59 -33 -132.5 -49t-159.5 -16q-147 0 -254 43t-175.5 125.5t-103.5 205.5t-35 285zM281 651q0 -113 19 -209t64.5 -165.5 t120 -108.5t189.5 -39q86 0 153.5 23.5t118.5 62.5v870q-55 37 -119.5 58.5t-144.5 21.5q-113 0 -188.5 -41t-123.5 -111.5t-68.5 -163.5t-20.5 -198z" />
<glyph unicode="&#x153;" horiz-adv-x="1738" d="M90 469q0 109 28.5 201t86 159.5t143.5 104.5t201 37q131 0 217 -49.5t139 -145.5q55 98 141.5 146.5t200.5 48.5q104 0 179 -35t123 -92.5t70.5 -134t22.5 -164.5v-31q0 -39 -19 -55.5t-44 -16.5h-592q0 -76 16.5 -135t51.5 -102t90 -66.5t137 -23.5q63 0 113.5 10 t87.5 23.5t60.5 23.5t33.5 10q6 0 12 -3t9.5 -10t5.5 -19.5t2 -30.5q0 -12 -1 -21.5t-3.5 -16.5t-5.5 -14.5t-9 -12.5t-32.5 -17t-70.5 -24.5t-99.5 -21.5t-120.5 -9q-131 0 -224.5 47t-146.5 147q-53 -94 -143.5 -144t-219.5 -50q-111 0 -192.5 32.5t-138 95t-83 152.5 t-26.5 207zM262 477q0 -74 14.5 -138.5t45 -113.5t84 -76.5t133.5 -27.5q72 0 125 25.5t86.5 72.5t49 111.5t15.5 140.5t-13.5 141.5t-44 113.5t-83.5 76.5t-131 28.5q-74 0 -126 -25.5t-86 -72.5t-51.5 -112.5t-17.5 -143.5zM987 563h490q4 129 -57.5 204t-180.5 75 q-61 0 -107.5 -23.5t-77 -61.5t-47 -88.5t-20.5 -105.5z" />
<glyph unicode="&#x178;" horiz-adv-x="997" d="M33 1269q-2 13 5 20t26.5 9t52.5 2q31 0 49 -2t29.5 -6t16.5 -10t9 -16l180 -371q25 -53 49.5 -111.5t51.5 -117.5h2q23 57 47 113.5t49 111.5l180 375q4 10 9.5 16t14.5 10t26.5 6t43.5 2q35 0 55.5 -3t29 -10t6.5 -19.5t-15 -34.5l-364 -729v-477q0 -8 -4 -14.5 t-14.5 -9.5t-28 -6t-39.5 -3q-27 0 -43.5 3t-26.5 6t-14 9t-4 15v477l-367 729q-10 23 -12 36zM66 1294zM197 1528q0 55 20.5 75.5t77.5 20.5q55 0 75.5 -20.5t20.5 -73.5q0 -57 -21.5 -77.5t-76.5 -20.5t-75.5 20.5t-20.5 75.5zM610 1528q0 55 20.5 75.5t76.5 20.5 q57 0 77.5 -20.5t20.5 -73.5q0 -57 -20.5 -77.5t-77.5 -20.5q-55 0 -76 20.5t-21 75.5z" />
<glyph unicode="&#x2000;" horiz-adv-x="954" />
<glyph unicode="&#x2001;" horiz-adv-x="1909" />
<glyph unicode="&#x2002;" horiz-adv-x="954" />
<glyph unicode="&#x2003;" horiz-adv-x="1909" />
<glyph unicode="&#x2004;" horiz-adv-x="636" />
<glyph unicode="&#x2005;" horiz-adv-x="477" />
<glyph unicode="&#x2006;" horiz-adv-x="318" />
<glyph unicode="&#x2007;" horiz-adv-x="318" />
<glyph unicode="&#x2008;" horiz-adv-x="238" />
<glyph unicode="&#x2009;" horiz-adv-x="381" />
<glyph unicode="&#x200a;" horiz-adv-x="106" />
<glyph unicode="&#x2010;" horiz-adv-x="796" d="M63 592q0 131 117 131h436q117 0 117 -131q0 -127 -117 -127h-436q-117 0 -117 127z" />
<glyph unicode="&#x2011;" horiz-adv-x="796" d="M63 592q0 131 117 131h436q117 0 117 -131q0 -127 -117 -127h-436q-117 0 -117 127z" />
<glyph unicode="&#x2012;" horiz-adv-x="796" d="M63 592q0 131 117 131h436q117 0 117 -131q0 -127 -117 -127h-436q-117 0 -117 127z" />
<glyph unicode="&#x2013;" horiz-adv-x="1024" d="M0 594q0 123 123 123h778q123 0 123 -123t-123 -123h-778q-123 0 -123 123z" />
<glyph unicode="&#x2014;" horiz-adv-x="2048" d="M-123 594q0 123 123 123h2048q123 0 123 -123t-123 -123h-2048q-123 0 -123 123z" />
<glyph unicode="&#x2018;" horiz-adv-x="491" d="M18 1024q0 37 25 82l170 307q39 70 119 70q55 0 98 -39q43 -41 43 -96q0 -37 -27 -82l-172 -308q-39 -70 -116 -69q-55 0 -97 41q-43 39 -43 94z" />
<glyph unicode="&#x2019;" horiz-adv-x="491" d="M18 1024q0 37 25 82l170 307q39 70 119 70q55 0 98 -39q43 -41 43 -96q0 -37 -27 -82l-172 -308q-39 -70 -116 -69q-55 0 -97 41q-43 39 -43 94z" />
<glyph unicode="&#x201a;" horiz-adv-x="491" d="M18 -139q0 37 25 82l170 307q39 70 119 69q55 0 98 -38q43 -41 43 -97q0 -25 -27 -82l-172 -307q-39 -70 -116 -69q-55 0 -97 41q-43 39 -43 94z" />
<glyph unicode="&#x201c;" horiz-adv-x="909" d="M18 1024q0 37 25 82l170 307q39 70 119 70q55 0 98 -39q43 -41 43 -96q0 -37 -27 -82l-172 -308q-39 -70 -116 -69q-55 0 -97 41q-43 39 -43 94zM436 1024q0 37 25 82l170 307q39 70 119 70q55 0 98 -39q43 -41 43 -96q0 -37 -27 -82l-172 -308q-39 -70 -117 -69 q-55 0 -96 41q-43 39 -43 94z" />
<glyph unicode="&#x201d;" horiz-adv-x="909" d="M18 1024q0 37 25 82l170 307q39 70 119 70q55 0 98 -39q43 -41 43 -96q0 -37 -27 -82l-172 -308q-39 -70 -116 -69q-55 0 -97 41q-43 39 -43 94zM436 1024q0 37 25 82l170 307q39 70 119 70q55 0 98 -39q43 -41 43 -96q0 -37 -27 -82l-172 -308q-39 -70 -117 -69 q-55 0 -96 41q-43 39 -43 94z" />
<glyph unicode="&#x201e;" horiz-adv-x="909" d="M18 -139q0 37 25 82l170 307q39 70 119 69q55 0 98 -38q43 -41 43 -97q0 -37 -27 -82l-172 -307q-39 -70 -116 -69q-55 0 -97 41q-43 39 -43 94zM436 -139q0 37 25 82l170 307q39 70 119 69q55 0 98 -38q43 -41 43 -97q0 -37 -27 -82l-172 -307q-39 -70 -117 -69 q-55 0 -96 41q-43 39 -43 94z" />
<glyph unicode="&#x2022;" horiz-adv-x="1024" d="M147 729q1 152 107 258q109 106 258 107q152 0 258 -107q106 -106 107 -258q0 -150 -107 -258q-106 -106 -258 -106q-150 0 -258 106q-106 109 -107 258z" />
<glyph unicode="&#x2026;" horiz-adv-x="2048" d="M182 135q0 66 47 113t113 47t113 -47t47 -113t-47 -112q-47 -47 -113 -48q-66 0 -113 48q-47 47 -47 112zM864 135q0 66 47 113t113 47t113 -47t47 -113t-47 -112q-47 -47 -113 -48q-66 0 -113 48q-47 47 -47 112zM1546 135q0 66 47 113t113 47t113 -47t47 -113t-47 -112 q-47 -47 -113 -48q-66 0 -113 48q-47 47 -47 112z" />
<glyph unicode="&#x202f;" horiz-adv-x="381" />
<glyph unicode="&#x2039;" horiz-adv-x="606" d="M76 584q0 45 49 114l199 281q31 35 88 35q53 0 88 -35q31 -31 30 -78q0 -41 -22 -78l-162 -248l162 -243q23 -33 22 -70q0 -55 -32 -92q-35 -37 -90 -37q-68 0 -103 51l-211 326q-18 27 -18 74z" />
<glyph unicode="&#x203a;" horiz-adv-x="606" d="M76 246q0 47 22 78l162 247l-162 244q-23 33 -22 70q0 55 35 92q33 37 88 37q68 0 102 -51l211 -326q18 -27 18 -74q0 -45 -49 -114l-198 -281q-31 -35 -88 -35q-53 0 -86 35q-33 31 -33 78z" />
<glyph unicode="&#x205f;" horiz-adv-x="477" />
<glyph unicode="&#x20ac;" d="M37 553l41 100h90q-2 20 -2 70q0 43 2 61h-131l41 101h98q33 295 156 440q133 158 391 158q244 0 346 -107l14 -207h-51q-33 205 -239 205q-264 0 -304 -489h484l-41 -101h-445q-2 -20 -2 -65v-66h394l-41 -100h-349q29 -469 306 -469q207 0 237 203h51l-14 -199 q-104 -111 -346 -111q-483 0 -541 576h-145z" />
<glyph unicode="&#x2122;" horiz-adv-x="2048" d="M86 1366q0 92 92 92h570q92 0 92 -92t-92 -92h-162v-537q0 -123 -123 -123t-123 123v537h-162q-92 0 -92 92zM958 737v606q0 127 175 127q133 0 182 -127l145 -372l146 372q49 127 182 127q174 0 174 -127v-606q0 -123 -111 -123t-110 123v426h-4l-148 -426 q-43 -123 -129 -123t-129 123l-147 426h-4v-426q0 -123 -111 -123t-111 123z" />
<glyph unicode="&#x25fc;" horiz-adv-x="1105" d="M0 0v1106h1106v-1106h-1106z" />
<glyph unicode="&#xfb01;" horiz-adv-x="1083" d="M37 883q0 18 2 31.5t6 21.5t10 11t15 3h127v99q0 92 17 158.5t53 109.5t88.5 63.5t119.5 20.5q23 0 45.5 -2t40 -6t30.5 -8.5t18 -9.5t8.5 -10t5.5 -13.5t3 -20.5t1 -28q0 -33 -5.5 -47.5t-17.5 -14.5q-6 0 -15 4t-21.5 8t-32 7.5t-46.5 3.5q-70 0 -98.5 -51.5 t-28.5 -161.5v-101h519q27 0 39 -13t12 -38v-874q0 -8 -4 -13.5t-13.5 -9.5t-26 -6t-38.5 -2q-25 0 -41 2t-25.5 6t-13.5 9t-4 14v788h-404v-788q0 -8 -4 -13.5t-13 -9.5t-25.5 -6t-40.5 -2q-23 0 -39.5 2t-25.5 6t-13 9t-4 14v788h-127q-16 0 -24.5 16.5t-8.5 53.5z M750 1229q0 27 5 45t16 31.5t30.5 17.5t48.5 4q31 0 50.5 -4t29.5 -17.5t15 -31.5t5 -45q0 -29 -5 -48.5t-15 -30.5t-29.5 -16.5t-50.5 -5.5q-29 0 -48.5 5.5t-30.5 16.5t-16 30.5t-5 48.5z" />
<glyph unicode="&#xfb02;" horiz-adv-x="1083" d="M37 883q0 18 2 31.5t6 21.5t10 11t15 3h127v97q0 94 20.5 160.5t64.5 109.5t110.5 63.5t160.5 20.5q25 0 53.5 -2t54 -6t45 -7.5t32 -7.5t19.5 -8t9 -12q2 8 5 14t11.5 11.5t24.5 7.5t43 2q23 0 39 -2t25.5 -6.5t13.5 -10.5t4 -12v-1337q0 -8 -4 -13.5t-13.5 -9.5t-26 -6 t-38.5 -2q-25 0 -41 2t-25.5 6t-13.5 9t-4 14v1220q-2 -2 -6 -4t-10 -2q-12 0 -36 6t-50.5 10.5t-50 6.5t-46.5 2q-61 0 -101 -13.5t-63.5 -39t-32 -66.5t-8.5 -96v-99h185q8 0 14 -3t10 -11t6.5 -21.5t2.5 -31.5q0 -37 -8.5 -53.5t-24.5 -16.5h-185v-788q0 -8 -4 -13.5 t-13 -9.5t-25.5 -6t-40.5 -2q-23 0 -39.5 2t-25.5 6t-13 9t-4 14v788h-127q-16 0 -24.5 16.5t-8.5 53.5z" />
<glyph unicode="&#xfb03;" horiz-adv-x="1652" d="M37 883q0 18 2 31.5t6 21.5t10 11t15 3h127v86q0 92 17 159t53 110t90.5 63.5t123.5 20.5q45 0 78 -7.5t48.5 -13.5t21.5 -12t10 -16.5t5 -23.5t1 -32q0 -33 -4 -47t-18 -14q-8 0 -18.5 5t-27 10t-37 9t-44.5 4q-74 0 -104 -50t-30 -163v-88h404v99q0 92 18.5 158.5 t53 109.5t88 63.5t121.5 20.5q20 0 42.5 -2t41 -6t32 -8.5t18.5 -9.5t8 -10t5 -13.5t3 -20.5t1 -28q0 -33 -5 -47.5t-17 -14.5q-8 0 -16.5 4t-22 8t-32 7.5t-44.5 3.5q-70 0 -99.5 -51.5t-29.5 -161.5v-101h518q27 0 40 -13t13 -38v-874q0 -8 -4 -13.5t-13 -9.5t-25.5 -6 t-41.5 -2q-23 0 -39 2t-26.5 6t-13.5 9t-3 14v788h-405v-788q0 -8 -4 -13.5t-13.5 -9.5t-26 -6t-38.5 -2q-25 0 -41 2t-25.5 6t-13.5 9t-4 14v788h-404v-788q0 -8 -4 -13.5t-13 -9.5t-25.5 -6t-40.5 -2q-23 0 -39.5 2t-25.5 6t-13 9t-4 14v788h-127q-16 0 -24.5 16.5 t-8.5 53.5zM1319 1229q0 27 5 45t16.5 31.5t31 17.5t47.5 4q31 0 50.5 -4t30.5 -17.5t16.5 -31.5t5.5 -45q0 -29 -5.5 -48.5t-16.5 -30.5t-30.5 -16.5t-50.5 -5.5q-29 0 -48 5.5t-30.5 16.5t-16.5 30.5t-5 48.5z" />
<glyph unicode="&#xfb04;" horiz-adv-x="1652" d="M37 883q0 18 2 31.5t6 21.5t10 11t15 3h127v86q0 92 17 159t53 110t90.5 63.5t123.5 20.5q45 0 78 -7.5t48.5 -13.5t21.5 -12t10 -16.5t5 -23.5t1 -32q0 -33 -4 -47t-18 -14q-8 0 -18.5 5t-27 10t-36 9t-45.5 4q-74 0 -104 -50t-30 -163v-88h404v99q0 92 21.5 158.5 t64.5 109.5t109.5 63.5t160.5 20.5q27 0 54.5 -2t54 -5t46 -7.5t31 -7.5t18.5 -8t11 -13q0 8 3 14t12.5 11.5t26 7.5t40.5 2q25 0 41.5 -2t25.5 -6.5t13 -10.5t4 -12v-1337q0 -8 -4 -13.5t-13 -9.5t-25.5 -6t-41.5 -2q-23 0 -39 2t-26.5 6t-13.5 9t-3 14v1222q-4 -4 -8 -5 t-10 -1q-12 0 -35.5 5t-50.5 9.5t-50.5 6.5t-43.5 2q-63 0 -103.5 -12.5t-63 -39t-31.5 -66.5t-9 -95v-101h186q8 0 13.5 -3t10.5 -11t7 -21.5t2 -31.5q0 -37 -9 -53.5t-24 -16.5h-186v-788q0 -8 -4 -13.5t-13.5 -9.5t-26 -6t-38.5 -2q-25 0 -41 2t-25.5 6t-13.5 9t-4 14 v788h-404v-788q0 -8 -4 -13.5t-13 -9.5t-25.5 -6t-40.5 -2q-23 0 -39.5 2t-25.5 6t-13 9t-4 14v788h-127q-16 0 -24.5 16.5t-8.5 53.5z" />
</font>
</defs>
</svg>
